<?xml version="1.0" encoding="utf-8" standalone="no"?>
<!DOCTYPE svg PUBLIC "-//W3C//DTD SVG 1.1//EN"
  "http://www.w3.org/Graphics/SVG/1.1/DTD/svg11.dtd">
<svg xmlns:xlink="http://www.w3.org/1999/xlink" width="373.615185pt" height="518.4pt" viewBox="0 0 373.615185 518.4" xmlns="http://www.w3.org/2000/svg" version="1.1">
 <metadata>
  <rdf:RDF xmlns:dc="http://purl.org/dc/elements/1.1/" xmlns:cc="http://creativecommons.org/ns#" xmlns:rdf="http://www.w3.org/1999/02/22-rdf-syntax-ns#">
   <cc:Work>
    <dc:type rdf:resource="http://purl.org/dc/dcmitype/StillImage"/>
    <dc:date>2026-03-07T11:40:58.049633</dc:date>
    <dc:format>image/svg+xml</dc:format>
    <dc:creator>
     <cc:Agent>
      <dc:title>Matplotlib v3.10.0, https://matplotlib.org/</dc:title>
     </cc:Agent>
    </dc:creator>
   </cc:Work>
  </rdf:RDF>
 </metadata>
 <defs>
  <style type="text/css">*{stroke-linejoin: round; stroke-linecap: butt}</style>
 </defs>
 <g id="figure_1">
  <g id="patch_1">
   <path d="M 0 518.4 
L 373.615185 518.4 
L 373.615185 0 
L 0 0 
z
" style="fill: #2d1410"/>
  </g>
  <g id="axes_1">
   <g id="PatchCollection_1">
    <path d="M 281.090238 156.534117 
L 286.831355 155.873336 
L 291.868469 150.843694 
L 297.272285 143.602787 
L 300.697395 140.697344 
L 300.569248 136.18514 
L 297.579392 133.037843 
L 296.774327 127.570923 
L 296.774276 127.570579 
L 300.781654 125.813183 
L 301.584492 117.644897 
L 296.072244 109.810948 
L 300.942025 108.143388 
L 316.16287 108.321239 
L 344.45149 107.247195 
L 346.79657 108.771904 
L 397.139856 137.055371 
L 398.086863 145.109724 
L 418.014423 158.98857 
L 411.604594 176.095793 
L 412.426926 183.963828 
L 421.31569 189.022217 
L 421.732201 192.63198 
L 417.909878 201.016349 
L 418.70597 205.235746 
L 417.796448 211.867992 
L 422.644916 220.571131 
L 428.390826 234.26088 
L 433.485954 237.297215 
L 433.486007 237.297247 
L 422.44027 245.346741 
L 407.259224 250.738093 
L 398.93016 250.51023 
L 393.982701 254.674925 
L 384.317713 255.032811 
L 380.693103 256.787719 
L 364.009281 252.875408 
L 353.563058 253.998233 
L 349.675773 235.116117 
L 344.966944 228.641782 
L 342.174685 224.802606 
L 328.563871 222.212588 
L 320.684721 218.044144 
L 311.861394 215.707375 
L 306.327394 213.38227 
L 300.527593 209.847856 
L 300.527673 209.847877 
L 293.030213 192.354042 
L 284.978155 184.579641 
L 282.200866 176.526867 
L 283.589152 169.307063 
z
" clip-path="url(#p4bb331b8ef)" style="fill: #251510; stroke: #3a2018; stroke-width: 0.5"/>
    <path d="M 344.310679 92.533057 
L 348.287403 86.907568 
L 355.119574 77.717388 
L 360.171715 67.597556 
L 354.063996 51.660451 
L 352.440435 44.692775 
L 345.857754 35.053528 
L 354.398958 26.761654 
L 363.809483 17.613997 
L 371.021243 19.943237 
L 371.021243 27.735694 
L 375.764346 32.304843 
L 385.427607 32.304843 
L 403.001903 44.095706 
L 407.389917 44.235862 
L 410.641065 43.853227 
L 413.7145 45.454435 
L 422.973186 46.546805 
L 427.076594 40.761048 
L 439.759914 34.954467 
L 445.35949 39.646187 
L 454.845991 39.648659 
L 442.711173 55.398222 
L 442.877083 105.973921 
L 451.098042 117.427422 
L 441.37445 122.971185 
L 437.946286 128.764022 
L 432.742534 129.781698 
L 430.773131 139.564017 
L 426.314657 145.165814 
L 423.604974 154.403615 
L 418.014423 158.98857 
L 398.086863 145.109724 
L 397.139856 137.055371 
L 346.79657 108.771904 
L 344.45149 107.247195 
z
" clip-path="url(#p4bb331b8ef)" style="fill: #251510; stroke: #3a2018; stroke-width: 0.5"/>
    <path d="M 100.671206 490.808213 
L 107.322063 483.942117 
L 112.804895 487.743222 
L 115.14525 493.679489 
L 121.374241 494.691108 
L 130.103581 497.316295 
L 137.562298 496.302524 
L 149.954991 489.203254 
L 149.96934 437.926364 
L 153.717353 440.011304 
L 161.948775 453.203247 
L 160.669543 461.662821 
L 163.767537 466.537247 
L 173.712255 465.12098 
L 180.655118 458.924993 
L 187.229925 454.748656 
L 190.627817 448.098516 
L 197.400643 444.880707 
L 203.252249 446.566739 
L 209.884452 450.455374 
L 221.184453 451.141983 
L 230.063024 447.909107 
L 231.467811 443.577799 
L 233.908611 436.934834 
L 241.462751 435.823488 
L 245.636936 430.608268 
L 250.26025 421.356617 
L 262.725406 410.991468 
L 282.370187 400.766941 
L 288.018752 400.918325 
L 294.736333 403.27016 
L 299.414892 401.6035 
L 306.794689 402.991068 
L 313.444829 422.531818 
L 317.057242 432.395462 
L 314.583438 447.873951 
L 315.768683 452.858866 
L 308.762683 450.316186 
L 304.74921 451.305564 
L 303.43841 455.348453 
L 299.647349 460.560802 
L 299.77721 465.361329 
L 308.063159 472.886771 
L 316.189115 471.387996 
L 319.015908 465.222142 
L 329.546074 465.338371 
L 326.077153 475.445234 
L 324.437039 486.980562 
L 320.844715 493.247578 
L 311.370651 500.2586 
L 308.657216 502.266054 
L 302.773324 509.318689 
L 298.900473 516.452397 
L 291.027063 526.399985 
L 275.336206 540.724798 
L 265.537133 549.053795 
L 255.052885 555.371033 
L 240.54225 560.757725 
L 233.464504 561.480925 
L 231.673005 565.335122 
L 223.234954 563.283185 
L 216.362402 565.925592 
L 201.315106 563.250182 
L 192.903601 564.943389 
L 187.155309 564.216601 
L 172.836236 569.697281 
L 160.983074 571.895579 
L 152.405835 577.143084 
L 146.090749 577.476703 
L 140.216184 572.526227 
L 135.523994 572.272246 
L 129.544679 566.074106 
L 128.888921 567.999052 
L 127.043613 564.267541 
L 127.121098 556.127236 
L 122.610425 546.82321 
L 127.090965 544.294163 
L 126.72793 533.638442 
L 117.636273 520.644518 
L 110.659688 508.883908 
L 110.638882 508.8466 
z
M 248.592155 508.8466 
L 259.006809 519.52528 
L 263.974504 518.145604 
L 266.527228 513.709546 
L 274.265038 511.541381 
L 276.625482 507.011337 
L 280.884327 500.2586 
L 276.068016 496.068632 
L 270.006911 491.791133 
L 263.518199 494.622949 
L 255.995628 500.054841 
z
" clip-path="url(#p4bb331b8ef)" style="fill: #251510; stroke: #3a2018; stroke-width: 0.5"/>
    <path d="M 248.592155 508.8466 
L 255.995628 500.054841 
L 263.518199 494.622949 
L 270.006911 491.791133 
L 276.068016 496.068632 
L 280.884327 500.2586 
L 276.625482 507.011337 
L 274.265038 511.541381 
L 266.527228 513.709546 
L 263.974504 518.145604 
L 259.006809 519.52528 
z
" clip-path="url(#p4bb331b8ef)" style="fill: #251510; stroke: #3a2018; stroke-width: 0.5"/>
    <path d="M 224.503424 340.306559 
L 240.021374 341.826857 
L 244.531329 343.426076 
L 249.219215 343.103937 
L 256.908237 334.118463 
L 268.982377 322.700082 
L 273.952225 321.608108 
L 275.640409 316.794666 
L 283.545387 311.263765 
L 294.061203 309.363212 
L 294.959463 314.542558 
L 306.539991 314.266336 
L 312.974175 317.196444 
L 315.966702 320.631644 
L 322.578099 321.640393 
L 329.789293 326.101562 
L 329.820144 343.6736 
L 327.113166 353.295461 
L 326.517674 363.670654 
L 328.748975 367.783137 
L 327.180607 375.956445 
L 325.08347 377.219893 
L 321.42227 387.232769 
L 306.794689 402.991068 
L 299.414892 401.6035 
L 294.736333 403.27016 
L 288.018752 400.918325 
L 282.370187 400.766941 
L 273.518879 394.493468 
L 262.782803 392.362611 
L 258.699018 383.557937 
L 258.66458 378.660553 
L 252.718986 377.167518 
L 237.006605 361.917181 
L 232.641577 353.883061 
L 229.847786 351.406388 
z
" clip-path="url(#p4bb331b8ef)" style="fill: #251510; stroke: #3a2018; stroke-width: 0.5"/>
    <path d="M 149.965035 397.404922 
L 163.649874 396.921354 
L 164.059543 347.466095 
L 174.39456 347.006921 
L 195.800706 342.146127 
L 201.106325 347.869308 
L 209.969113 342.428089 
L 214.180605 342.397238 
L 222.00738 339.269111 
L 224.503424 340.306559 
L 229.847786 351.406388 
L 232.641577 353.883061 
L 237.006605 361.917181 
L 252.718986 377.167518 
L 258.66458 378.660553 
L 258.699018 383.557937 
L 262.782803 392.362611 
L 273.518879 394.493468 
L 282.370187 400.766941 
L 262.725406 410.991468 
L 250.26025 421.356617 
L 245.636936 430.608268 
L 241.462751 435.823488 
L 233.908611 436.934834 
L 231.467811 443.577799 
L 230.063024 447.909107 
L 221.184453 451.141983 
L 209.884452 450.455374 
L 203.252249 446.566739 
L 197.400643 444.880707 
L 190.627817 448.098516 
L 187.229925 454.748656 
L 180.655118 458.924993 
L 173.712255 465.12098 
L 163.767537 466.537247 
L 160.669543 461.662821 
L 161.948775 453.203247 
L 153.717353 440.011304 
L 149.96934 437.926364 
z
" clip-path="url(#p4bb331b8ef)" style="fill: #251510; stroke: #3a2018; stroke-width: 0.5"/>
    <path d="M -88.886836 7.162105 
L -88.090455 -15.217277 
L -88.441293 -24.048855 
L -85.823998 -32.806176 
L -81.547217 -37.06215 
L -74.812417 -45.656966 
L -76.275318 -49.391347 
L -73.539642 -54.980363 
L -76.66203 -63.216091 
L -76.121064 -67.828643 
L -75.156798 -80.223129 
L -71.177045 -85.821113 
L -69.224118 -93.805729 
L -65.608836 -96.808301 
L -50.687813 -98.45272 
L -36.771235 -93.271939 
L -31.564626 -88.02838 
L -24.479705 -87.791618 
L -17.899876 -91.199913 
L -1.096955 -84.023875 
L 5.983661 -84.363234 
L 14.173471 -90.27977 
L 22.312341 -89.858621 
L 26.318639 -91.807961 
L 33.790988 -90.997948 
L 44.540697 -86.946808 
L 55.396589 -94.707218 
L 58.655294 -94.154774 
L 68.049719 -78.955018 
L 70.631859 -79.261732 
L 76.127605 -73.731907 
L 74.614481 -71.224383 
L 73.881237 -66.609678 
L 62.185199 -55.866427 
L 58.516106 -47.005792 
L 56.55744 -39.789934 
L 53.612265 -36.695887 
L 50.810582 -26.977169 
L 43.385586 -21.257934 
L 41.234639 -14.232563 
L 38.115839 -8.640677 
L 36.817236 -2.869785 
L 27.279319 1.808416 
L 19.484829 -3.896829 
L 14.22154 -3.666524 
L 5.95281 4.459431 
L 1.93288 4.58427 
L -4.670625 17.979613 
L -8.242143 27.804873 
L -22.655921 32.801267 
L -27.924949 32.071251 
L -33.263572 35.182518 
L -44.36914 34.879032 
L -51.802029 26.194533 
L -56.372969 16.145067 
L -66.202175 6.997806 
L -76.634766 7.169279 
z
" clip-path="url(#p4bb331b8ef)" style="fill: #251510; stroke: #3a2018; stroke-width: 0.5"/>
    <path d="M -8.401419 31.641851 
L -8.242143 27.804873 
L -4.670625 17.979613 
L 1.93288 4.58427 
L 5.95281 4.459431 
L 14.22154 -3.666524 
L 19.484829 -3.896829 
L 27.279319 1.808416 
L 36.817236 -2.869785 
L 38.115839 -8.640677 
L 41.234639 -14.232563 
L 43.385586 -21.257934 
L 50.810582 -26.977169 
L 53.612265 -36.695887 
L 56.55744 -39.789934 
L 58.516106 -47.005792 
L 62.185199 -55.866427 
L 73.881237 -66.609678 
L 74.614481 -71.224383 
L 76.127605 -73.731907 
L 70.631859 -79.261732 
L 71.078837 -83.682005 
L 74.997605 -84.478386 
L 80.517386 -75.588008 
L 81.444704 -66.376503 
L 80.936742 -57.154268 
L 88.493751 -44.534141 
L 80.73944 -44.6701 
L 76.822107 -43.681439 
L 70.494824 -45.076182 
L 67.478621 -38.524693 
L 75.673453 -30.421696 
L 81.720208 -28.064839 
L 83.676005 -22.317623 
L 88.052513 -12.747061 
L 85.877891 -8.986134 
L 78.895567 5.083981 
L 75.563681 7.604419 
L 74.492513 18.367041 
L 75.874342 24.214343 
L 74.755821 28.351578 
L 81.316996 35.601873 
L 82.500805 40.586429 
L 87.626342 47.751347 
L 93.975866 52.218613 
L 94.595752 58.551636 
L 96.060088 62.574436 
L 95.061383 70.071179 
L 84.029713 66.789874 
L 72.804329 63.126522 
L 55.28323 62.581969 
L 53.554868 61.825048 
L 45.33636 63.613318 
L 36.899027 61.753661 
L 30.301261 62.665912 
L 7.708436 62.349153 
L 9.735978 51.387436 
L 4.309826 42.208607 
L -2.024631 39.853902 
L -4.845685 33.632803 
z
" clip-path="url(#p4bb331b8ef)" style="fill: #251510; stroke: #3a2018; stroke-width: 0.5"/>
    <path d="M 74.492513 18.367041 
L 75.563681 7.604419 
L 78.895567 5.083981 
L 85.877891 -8.986134 
L 97.356539 -10.02968 
L 99.91572 -13.600839 
L 102.21518 -13.329639 
L 105.683384 -10.185728 
L 123.162152 -15.497445 
L 129.057524 -20.917499 
L 136.297416 -25.771118 
L 134.922762 -30.658458 
L 138.837943 -31.93482 
L 152.245124 -31.072074 
L 165.312229 -37.504106 
L 175.349499 -52.652205 
L 182.392807 -58.272789 
L 191.181696 -60.640049 
L 192.755804 -54.69876 
L 200.763379 -46.018566 
L 200.804274 -40.3535 
L 198.548579 -34.575792 
L 199.440382 -30.260985 
L 204.255259 -26.262937 
L 214.828471 -20.19394 
L 222.430681 -14.583759 
L 222.558389 -10.071293 
L 231.895418 -2.841086 
L 237.681735 3.166568 
L 241.187247 11.495206 
L 251.56531 16.989876 
L 253.798047 21.391137 
L 249.214193 22.864083 
L 240.31051 22.544454 
L 229.865723 21.083705 
L 224.705748 22.273254 
L 222.623678 25.649264 
L 218.128072 26.065749 
L 212.650979 23.128825 
L 197.194014 30.058057 
L 190.866731 28.663673 
L 188.959722 29.733765 
L 184.808496 38.118007 
L 174.451239 35.408159 
L 164.29487 34.041397 
L 155.452172 28.919807 
L 144.027334 24.201429 
L 136.59301 28.672283 
L 131.187663 35.72133 
L 129.939282 45.403816 
L 121.009771 44.628959 
L 111.612476 42.296496 
L 103.338006 49.654051 
L 96.060088 62.574436 
L 94.595752 58.551636 
L 93.975866 52.218613 
L 87.626342 47.751347 
L 82.500805 40.586429 
L 81.316996 35.601873 
L 74.755821 28.351578 
L 75.874342 24.214343 
z
" clip-path="url(#p4bb331b8ef)" style="fill: #251510; stroke: #3a2018; stroke-width: 0.5"/>
    <path d="M 27.765039 149.29853 
L 38.335382 141.635336 
L 33.100074 132.454713 
L 37.861141 128.963551 
L 47.22902 127.26317 
L 48.333909 121.110231 
L 55.752449 127.777589 
L 68.008824 128.361602 
L 72.268386 121.801145 
L 74.021142 112.5703 
L 72.5073 101.730192 
L 65.938951 93.519576 
L 71.949834 77.439855 
L 68.4845 74.680503 
L 58.154506 75.811938 
L 54.273763 68.638052 
L 55.28323 62.581969 
L 72.804329 63.126522 
L 84.029713 66.789874 
L 95.061383 70.071179 
L 96.060088 62.574436 
L 103.338006 49.654051 
L 111.612476 42.296496 
L 121.009771 44.628959 
L 129.939282 45.403816 
L 129.116355 53.788775 
L 124.957955 61.212696 
L 122.24452 69.874595 
L 120.514006 82.177963 
L 121.240793 90.046351 
L 118.977924 94.864097 
L 118.632108 99.955913 
L 117.036476 104.384795 
L 107.895314 111.076548 
L 101.533593 118.228192 
L 95.504056 131.715729 
L 95.968971 143.138415 
L 92.459872 147.581647 
L 84.371942 154.361647 
L 76.202939 163.063006 
L 71.016418 160.603552 
L 70.126767 156.673304 
L 62.564018 156.536269 
L 57.815865 161.851216 
L 54.168297 160.437101 
L 48.965275 155.673882 
L 44.770284 158.009215 
L 39.166201 164.003597 
z
" clip-path="url(#p4bb331b8ef)" style="fill: #251510; stroke: #3a2018; stroke-width: 0.5"/>
    <path d="M -4.108854 109.486656 
L -3.663311 104.874103 
L -0.632041 100.435176 
L 2.74074 90.327595 
L 5.538836 80.033474 
L 10.223134 79.231354 
L 30.421077 79.373411 
L 30.301261 62.665912 
L 36.899027 61.753661 
L 45.33636 63.613318 
L 53.554868 61.825048 
L 55.28323 62.581969 
L 54.273763 68.638052 
L 58.154506 75.811938 
L 68.4845 74.680503 
L 71.949834 77.439855 
L 65.938951 93.519576 
L 72.5073 101.730192 
L 74.021142 112.5703 
L 72.268386 121.801145 
L 68.008824 128.361602 
L 55.752449 127.777589 
L 48.333909 121.110231 
L 47.22902 127.26317 
L 37.861141 128.963551 
L 33.100074 132.454713 
L 38.335382 141.635336 
L 27.765039 149.29853 
L 13.497623 135.285094 
L 4.322023 123.828688 
z
" clip-path="url(#p4bb331b8ef)" style="fill: #251510; stroke: #3a2018; stroke-width: 0.5"/>
    <path d="M 2.938759 77.939925 
L 7.708436 62.349153 
L 30.301261 62.665912 
L 30.421077 79.373411 
L 10.223134 79.231354 
L 5.538836 80.033474 
z
" clip-path="url(#p4bb331b8ef)" style="fill: #251510; stroke: #3a2018; stroke-width: 0.5"/>
    <path d="M 327.57521 284.442945 
L 331.79029 271.545161 
L 336.158906 266.712348 
L 333.491388 255.208589 
L 336.282309 243.953789 
L 338.647775 240.191427 
L 335.117153 228.406423 
L 328.563871 222.212588 
L 342.174685 224.802606 
L 344.966944 228.641782 
L 349.675773 235.116117 
L 353.563058 253.998233 
L 349.675858 264.549922 
L 353.563058 282.598354 
L 358.382957 282.396031 
L 363.392265 286.872266 
L 369.207998 296.913123 
L 370.388938 314.764971 
L 364.37949 317.688622 
L 360.141452 327.321962 
L 351.08208 318.745441 
L 350.054677 308.958564 
L 352.975458 302.503574 
L 352.16975 296.940386 
L 346.688353 293.426983 
L 342.868595 294.702628 
L 334.876087 288.038856 
z
" clip-path="url(#p4bb331b8ef)" style="fill: #251510; stroke: #3a2018; stroke-width: 0.5"/>
    <path d="M 292.745381 299.482348 
L 334.876087 288.038856 
L 342.868595 294.702628 
L 346.688353 293.426983 
L 352.16975 296.940386 
L 352.975458 302.503574 
L 350.054677 308.958564 
L 351.08208 318.745441 
L 360.141452 327.321962 
L 364.37949 317.688622 
L 370.388938 314.764971 
L 369.207998 296.913123 
L 363.392265 286.872266 
L 358.382957 282.396031 
L 353.563058 282.598354 
L 349.675858 264.549922 
L 353.563058 253.998233 
L 364.009281 252.875408 
L 380.693103 256.787719 
L 384.317713 255.032811 
L 393.982701 254.674925 
L 398.93016 250.51023 
L 407.259224 250.738093 
L 422.44027 245.346741 
L 433.486007 237.297247 
L 433.485954 237.297215 
L 433.485987 237.297192 
L 435.732355 243.521877 
L 435.161257 257.353795 
L 436.876704 269.536272 
L 437.415517 291.233707 
L 439.857035 298.033796 
L 435.716571 307.95412 
L 430.329879 317.596069 
L 421.49005 326.205593 
L 408.797459 331.483232 
L 393.147497 338.221619 
L 377.460944 353.12327 
L 372.118735 355.658057 
L 362.426563 365.523137 
L 356.706252 368.733055 
L 355.533204 378.632572 
L 362.117338 389.146953 
L 364.856601 397.289411 
L 365.029044 401.4429 
L 367.482257 400.748715 
L 367.085033 414.365684 
L 364.833643 420.815652 
L 368.105979 423.192598 
L 366.041128 428.968872 
L 360.237592 433.907869 
L 348.784772 438.600059 
L 332.088036 446.114739 
L 325.99895 451.248167 
L 327.189217 457.096904 
L 330.737775 458.031037 
L 329.546074 465.338371 
L 319.015908 465.222142 
L 317.823489 459.084986 
L 315.768683 452.858866 
L 314.583438 447.873951 
L 317.057242 432.395462 
L 313.444829 422.531818 
L 306.794689 402.991068 
L 321.42227 387.232769 
L 325.08347 377.219893 
L 327.180607 375.956445 
L 328.748975 367.783137 
L 326.517674 363.670654 
L 327.113166 353.295461 
L 329.820144 343.6736 
L 329.789293 326.101562 
L 322.578099 321.640393 
L 315.966702 320.631644 
L 312.974175 317.196444 
L 306.539991 314.266336 
L 294.959463 314.542558 
L 294.061203 309.363212 
z
" clip-path="url(#p4bb331b8ef)" style="fill: #251510; stroke: #3a2018; stroke-width: 0.5"/>
    <path d="M 299.647349 460.560802 
L 303.43841 455.348453 
L 304.74921 451.305564 
L 308.762683 450.316186 
L 315.768683 452.858866 
L 317.823489 459.084986 
L 319.015908 465.222142 
L 316.189115 471.387996 
L 308.063159 472.886771 
L 299.77721 465.361329 
z
" clip-path="url(#p4bb331b8ef)" style="fill: #251510; stroke: #3a2018; stroke-width: 0.5"/>
    <path d="M 276.715882 133.477094 
L 285.146759 134.568352 
L 289.397711 126.663374 
L 296.774327 127.570923 
L 297.579392 133.037843 
L 300.569248 136.18514 
L 300.697395 140.697344 
L 297.272285 143.602787 
L 291.868469 150.843694 
L 286.831355 155.873336 
L 281.090238 156.534117 
L 280.207044 139.78931 
z
" clip-path="url(#p4bb331b8ef)" style="fill: #251510; stroke: #3a2018; stroke-width: 0.5"/>
    <path d="M 331.26848 -14.02655 
L 335.997547 -21.934847 
L 343.365629 -22.276108 
L 345.440965 -26.516192 
L 345.255479 -38.99792 
L 349.362695 -53.527356 
L 355.939406 -57.415904 
L 357.334441 -63.091424 
L 363.288607 -73.697186 
L 371.662424 -80.575451 
L 377.3074 -94.251594 
L 379.518935 -106.174642 
L 395.683178 -103.272809 
L 400.019059 -113.634635 
L 408.444801 -107.331988 
L 416.5869 -110.597019 
L 419.935788 -107.694075 
L 429.455012 -107.528026 
L 441.538694 -101.961354 
L 445.12902 -97.167172 
L 451.2845 -92.707171 
L 456.99334 -84.567571 
L 461.738929 -80.074943 
L 456.857974 -73.935153 
L 452.16195 -67.426472 
L 453.242519 -63.59332 
L 453.46438 -59.369897 
L 461.219401 -59.1379 
L 464.562458 -60.122393 
L 467.643556 -57.647881 
L 464.615633 -52.728904 
L 469.743718 -45.083981 
L 474.865 -38.399532 
L 480.165244 -33.444438 
L 525.559266 -16.968646 
L 537.236572 -17.053614 
L 498.003722 24.61666 
L 479.917003 25.228515 
L 467.543845 35.015971 
L 458.643557 35.272265 
L 454.845991 39.648659 
L 445.35949 39.646187 
L 439.759914 34.954467 
L 427.076594 40.761048 
L 422.973186 46.546805 
L 413.7145 45.454435 
L 410.641065 43.853227 
L 407.389917 44.235862 
L 403.001903 44.095706 
L 385.427607 32.304843 
L 375.764346 32.304843 
L 371.021243 27.735694 
L 371.021243 19.943237 
L 363.809483 17.613997 
L 355.604393 2.505472 
L 349.263705 -0.713465 
L 346.831002 -6.265281 
L 339.794601 -13.03206 
z
" clip-path="url(#p4bb331b8ef)" style="fill: #251510; stroke: #3a2018; stroke-width: 0.5"/>
    <path d="M 284.414949 112.680072 
L 284.531178 102.213043 
L 287.747552 96.908141 
L 288.528867 85.76383 
L 291.449648 79.308839 
L 296.758137 72.068588 
L 302.091737 68.381201 
L 306.555057 63.451531 
L 300.990435 61.571426 
L 301.830581 45.337451 
L 301.830477 45.337373 
L 307.546504 41.550892 
L 316.375013 44.655705 
L 327.550979 41.406224 
L 337.319276 41.438434 
L 345.857754 35.053528 
L 352.440435 44.692775 
L 354.063996 51.660451 
L 360.171715 67.597556 
L 355.119574 77.717388 
L 348.287403 86.907568 
L 344.310679 92.533057 
L 344.45149 107.247195 
L 316.16287 108.321239 
L 300.942025 108.143388 
L 296.072244 109.810948 
L 287.775533 114.096338 
z
" clip-path="url(#p4bb331b8ef)" style="fill: #251510; stroke: #3a2018; stroke-width: 0.5"/>
    <path d="M 276.715882 133.477094 
L 278.000854 125.882059 
L 279.907863 124.811608 
L 280.422282 116.550053 
L 284.414949 112.680072 
L 287.775533 114.096338 
L 296.072244 109.810948 
L 301.584492 117.644897 
L 300.781654 125.813183 
L 296.774276 127.570579 
L 296.774327 127.570923 
L 289.397711 126.663374 
L 285.146759 134.568352 
z
" clip-path="url(#p4bb331b8ef)" style="fill: #251510; stroke: #3a2018; stroke-width: 0.5"/>
    <path d="M 205.382145 -25.616107 
L 209.645667 -27.12897 
L 214.412601 -29.750784 
L 217.987802 -42.144813 
L 221.80135 -48.580175 
L 231.811912 -50.486949 
L 234.195379 -46.673401 
L 241.345781 -38.569612 
L 245.159329 -37.377879 
L 250.16461 -39.761346 
L 260.175173 -39.284653 
L 262.081946 -36.424492 
L 275.906057 -36.424492 
L 276.38275 -39.284653 
L 283.533152 -41.906467 
L 284.963232 -45.958361 
L 290.20686 -48.818522 
L 301.88585 -40.714733 
L 309.036252 -42.144813 
L 315.948307 -52.155376 
L 323.575402 -59.782471 
L 322.383668 -68.124607 
L 319.046814 -72.176501 
L 327.38895 -72.891541 
L 328.342337 -75.990049 
L 334.777698 -75.036662 
L 333.109271 -64.787752 
L 334.777698 -54.77719 
L 341.9281 -49.295215 
L 343.596527 -44.528281 
L 343.35818 -37.616226 
L 345.280092 -37.341667 
L 345.440965 -26.516192 
L 343.365629 -22.276108 
L 335.997547 -21.934847 
L 331.26848 -14.02655 
L 339.794601 -13.03206 
L 346.831002 -6.265281 
L 349.263705 -0.713465 
L 355.604393 2.505472 
L 363.809483 17.613997 
L 354.398958 26.761654 
L 345.857754 35.053528 
L 337.319276 41.438434 
L 327.550979 41.406224 
L 316.375013 44.655705 
L 307.546504 41.550892 
L 301.830477 45.337373 
L 289.607927 36.11127 
L 286.310479 30.181461 
L 278.578409 33.118384 
L 272.158574 32.204699 
L 268.44213 34.536086 
L 262.208117 32.852565 
L 253.798047 21.391137 
L 251.56531 16.989876 
L 241.187247 11.495206 
L 237.681735 3.166568 
L 231.895418 -2.841086 
L 222.558389 -10.071293 
L 222.430681 -14.583759 
L 214.828471 -20.19394 
z
" clip-path="url(#p4bb331b8ef)" style="fill: #251510; stroke: #3a2018; stroke-width: 0.5"/>
   </g>
   <g id="PatchCollection_2">
    <path d="M 35.35003 325.54266 
L 37.272106 313.334355 
L 42.062589 300.623828 
L 42.785071 294.66532 
L 47.290005 282.149942 
L 50.599649 276.460481 
L 58.574938 267.376716 
L 63.028932 261.198665 
L 64.486811 250.913871 
L 63.760024 243.044766 
L 59.608081 238.081376 
L 55.910291 229.658391 
L 52.500202 221.328677 
L 53.245643 218.443052 
L 57.513097 212.938696 
L 53.300887 199.525775 
L 50.458309 190.231794 
L 43.503249 181.447927 
L 44.823376 178.749559 
L 50.553732 176.883444 
L 54.575814 177.143165 
L 59.445218 175.47507 
L 100.415072 175.65874 
L 103.839511 186.004518 
L 107.824285 194.329927 
L 111.014831 198.819794 
L 116.33193 206.079058 
L 125.512552 204.956232 
L 130.093536 203.003305 
L 137.76534 204.964124 
L 139.845975 201.492334 
L 143.329245 193.401534 
L 151.940204 192.859134 
L 152.688515 190.453489 
L 159.772001 190.401115 
L 158.56308 195.403248 
L 175.409048 195.281997 
L 175.663747 204.017794 
L 178.477626 209.374353 
L 176.432147 217.743528 
L 177.450941 226.282023 
L 182.082147 231.434106 
L 181.339576 247.955782 
L 184.776211 246.68229 
L 190.809334 247.023084 
L 199.409531 244.943884 
L 205.732509 245.762506 
L 207.199716 250.073008 
L 205.620586 256.806373 
L 208.060668 263.318043 
L 205.99223 268.518195 
L 207.175322 273.31083 
L 178.265975 273.13577 
L 177.626718 317.311955 
L 186.993163 328.670787 
L 196.053252 337.343448 
L 170.536775 343.00134 
L 136.924476 341.036216 
L 127.304768 334.383924 
L 71.025745 334.983003 
L 68.926456 335.958749 
L 60.649833 329.680971 
L 51.649294 329.266279 
L 43.338233 331.631028 
L 36.656525 334.272 
z
" clip-path="url(#p4bb331b8ef)" style="fill: #3d2420; stroke: #8b1a10; stroke-width: 1.5"/>
    <path d="M 39.166201 164.003597 
L 44.770284 158.009215 
L 48.965275 155.673882 
L 54.168297 160.437101 
L 49.115941 163.355012 
L 46.844462 166.924378 
L 46.409681 172.976873 
L 42.878341 174.443362 
z
" clip-path="url(#p4bb331b8ef)" style="fill: #3d2420; stroke: #8b1a10; stroke-width: 1.5"/>
    <path d="M 42.878341 174.443362 
L 46.409681 172.976873 
L 46.844462 166.924378 
L 49.115941 163.355012 
L 54.168297 160.437101 
L 57.815865 161.851216 
L 62.564018 156.536269 
L 70.126767 156.673304 
L 71.016418 160.603552 
L 76.202939 163.063006 
L 84.371942 154.361647 
L 92.459872 147.581647 
L 95.968971 143.138415 
L 95.504056 131.715729 
L 101.533593 118.228192 
L 107.895314 111.076548 
L 117.036476 104.384795 
L 118.632108 99.955913 
L 118.977924 94.864097 
L 121.240793 90.046351 
L 120.514006 82.177963 
L 122.24452 69.874595 
L 124.957955 61.212696 
L 129.116355 53.788775 
L 129.939282 45.403816 
L 131.187663 35.72133 
L 136.59301 28.672283 
L 144.027334 24.201429 
L 155.452172 28.919807 
L 164.29487 34.041397 
L 174.451239 35.408159 
L 184.808496 38.118007 
L 188.959722 29.733765 
L 190.866731 28.663673 
L 197.194014 30.058057 
L 212.650979 23.128825 
L 218.128072 26.065749 
L 222.623678 25.649264 
L 224.705748 22.273254 
L 229.865723 21.083705 
L 240.31051 22.544454 
L 249.214193 22.864083 
L 253.798047 21.391137 
L 262.208117 32.852565 
L 268.44213 34.536086 
L 272.158574 32.204699 
L 278.578409 33.118384 
L 286.310479 30.181461 
L 289.607927 36.11127 
L 301.830477 45.337373 
L 301.830581 45.337451 
L 300.990435 61.571426 
L 306.555057 63.451531 
L 302.091737 68.381201 
L 296.758137 72.068588 
L 291.449648 79.308839 
L 288.528867 85.76383 
L 287.747552 96.908141 
L 284.531178 102.213043 
L 284.414949 112.680072 
L 280.422282 116.550053 
L 279.907863 124.811608 
L 278.000854 125.882059 
L 276.715882 133.477094 
L 280.207044 139.78931 
L 281.090238 156.534117 
L 283.589152 169.307063 
L 282.200866 176.526867 
L 284.978155 184.579641 
L 293.030213 192.354042 
L 300.527673 209.847877 
L 300.527593 209.847856 
L 295.058473 208.435197 
L 276.410244 210.778423 
L 272.688777 212.437909 
L 268.731984 221.300696 
L 271.839304 227.423503 
L 269.373393 243.861236 
L 267.654358 257.797186 
L 271.405241 260.267402 
L 281.111762 265.670595 
L 284.922193 263.145852 
L 286.083044 278.117097 
L 275.457457 278.002304 
L 269.755082 270.361351 
L 264.63959 264.445173 
L 254.000371 262.50516 
L 250.885158 255.230113 
L 242.397602 259.613078 
L 231.279837 257.676652 
L 226.640021 251.373046 
L 217.824586 250.092379 
L 211.317938 250.427433 
L 210.521557 246.111909 
L 205.732509 245.762506 
L 199.409531 244.943884 
L 190.809334 247.023084 
L 184.776211 246.68229 
L 181.339576 247.955782 
L 182.082147 231.434106 
L 177.450941 226.282023 
L 176.432147 217.743528 
L 178.477626 209.374353 
L 175.663747 204.017794 
L 175.409048 195.281997 
L 158.56308 195.403248 
L 159.772001 190.401115 
L 152.688515 190.453489 
L 151.940204 192.859134 
L 143.329245 193.401534 
L 139.845975 201.492334 
L 137.76534 204.964124 
L 130.093536 203.003305 
L 125.512552 204.956232 
L 116.33193 206.079058 
L 111.014831 198.819794 
L 107.824285 194.329927 
L 103.839511 186.004518 
L 100.415072 175.65874 
L 59.445218 175.47507 
L 54.575814 177.143165 
L 50.553732 176.883444 
L 44.823376 178.749559 
z
" clip-path="url(#p4bb331b8ef)" style="fill: #3d2420; stroke: #8b1a10; stroke-width: 1.5"/>
    <path d="M 177.626718 317.311955 
L 178.265975 273.13577 
L 207.175322 273.31083 
L 205.99223 268.518195 
L 208.060668 263.318043 
L 205.620586 256.806373 
L 207.199716 250.073008 
L 205.732509 245.762506 
L 210.521557 246.111909 
L 211.317938 250.427433 
L 217.824586 250.092379 
L 226.640021 251.373046 
L 231.279837 257.676652 
L 242.397602 259.613078 
L 250.885158 255.230113 
L 254.000371 262.50516 
L 264.63959 264.445173 
L 269.755082 270.361351 
L 275.457457 278.002304 
L 286.083044 278.117097 
L 284.922193 263.145852 
L 281.111762 265.670595 
L 271.405241 260.267402 
L 267.654358 257.797186 
L 269.373393 243.861236 
L 271.839304 227.423503 
L 268.731984 221.300696 
L 272.688777 212.437909 
L 276.410244 210.778423 
L 295.058473 208.435197 
L 300.527593 209.847856 
L 306.327394 213.38227 
L 311.861394 215.707375 
L 320.684721 218.044144 
L 328.563871 222.212588 
L 335.117153 228.406423 
L 338.647775 240.191427 
L 336.282309 243.953789 
L 333.491388 255.208589 
L 336.158906 266.712348 
L 331.79029 271.545161 
L 327.57521 284.442945 
L 334.876087 288.038856 
L 292.745381 299.482348 
L 294.061203 309.363212 
L 283.545387 311.263765 
L 275.640409 316.794666 
L 273.952225 321.608108 
L 268.982377 322.700082 
L 256.908237 334.118463 
L 249.219215 343.103937 
L 244.531329 343.426076 
L 240.021374 341.826857 
L 224.503424 340.306559 
L 222.00738 339.269111 
L 221.903348 338.11687 
L 216.424821 334.987308 
L 207.421411 334.188057 
L 196.053252 337.343448 
L 186.993163 328.670787 
z
" clip-path="url(#p4bb331b8ef)" style="fill: #3d2420; stroke: #8b1a10; stroke-width: 1.5"/>
    <path d="M 36.656525 334.272 
L 43.338233 331.631028 
L 51.649294 329.266279 
L 60.649833 329.680971 
L 68.926456 335.958749 
L 71.025745 334.983003 
L 127.304768 334.383924 
L 136.924476 341.036216 
L 170.536775 343.00134 
L 196.053252 337.343448 
L 207.421411 334.188057 
L 216.424821 334.987308 
L 221.903348 338.11687 
L 222.00738 339.269111 
L 214.180605 342.397238 
L 209.969113 342.428089 
L 201.106325 347.869308 
L 195.800706 342.146127 
L 174.39456 347.006921 
L 164.059543 347.466095 
L 163.649874 396.921354 
L 149.965035 397.404922 
L 149.96934 437.926364 
L 149.954991 489.203254 
L 137.562298 496.302524 
L 130.103581 497.316295 
L 121.374241 494.691108 
L 115.14525 493.679489 
L 112.804895 487.743222 
L 107.322063 483.942117 
L 100.671206 490.808213 
L 90.353409 480.31966 
L 84.920082 470.180511 
L 81.855091 456.663558 
L 78.432805 446.605481 
L 73.780792 425.225881 
L 73.469415 408.615957 
L 71.692265 401.043163 
L 66.290507 395.3207 
L 59.124513 383.849944 
L 51.826506 367.194102 
L 48.795954 358.477677 
L 37.499541 344.924133 
z
" clip-path="url(#p4bb331b8ef)" style="fill: #3d2420; stroke: #8b1a10; stroke-width: 1.5"/>
   </g>
   <g id="LineCollection_1">
    <path d="M 61.866572 265.52143 
L 59.784017 268.714682 
L 92.133049 271.491423 
L 130.590911 281.487691 
L 158.358321 267.603986 
L 183.765501 242.335643 
L 227.360334 242.890991 
L 240.272179 263.022363 
L 260.403551 268.020497 
L 271.927026 301.896737 
" clip-path="url(#p4bb331b8ef)" style="fill: none; stroke-dasharray: 11.1,4.8; stroke-dashoffset: 0; stroke: #8b1a10; stroke-width: 5"/>
    <path d="M 61.866572 265.52143 
L 59.784017 268.714682 
L 92.133049 271.491423 
L 130.590911 281.487691 
L 158.358321 267.603986 
L 183.765501 242.335643 
L 227.360334 242.890991 
L 240.272179 263.022363 
L 260.403551 268.020497 
L 271.927026 301.896737 
" clip-path="url(#p4bb331b8ef)" style="fill: none; stroke-dasharray: 11.1,4.8; stroke-dashoffset: 0; stroke: #c0b0a0; stroke-width: 3"/>
   </g>
   <g id="text_1">
    <!-- ANGOLA -->
    <g style="fill: #c0b0a0; opacity: 0.8" transform="translate(76.915666 313.118225) scale(0.14 -0.14)">
     <defs>
      <path id="DejaVuSans-Bold-41" d="M 3419 850 
L 1538 850 
L 1241 0 
L 31 0 
L 1759 4666 
L 3194 4666 
L 4922 0 
L 3713 0 
L 3419 850 
z
M 1838 1716 
L 3116 1716 
L 2478 3572 
L 1838 1716 
z
" transform="scale(0.015625)"/>
      <path id="DejaVuSans-Bold-4e" d="M 588 4666 
L 1931 4666 
L 3628 1466 
L 3628 4666 
L 4769 4666 
L 4769 0 
L 3425 0 
L 1728 3200 
L 1728 0 
L 588 0 
L 588 4666 
z
" transform="scale(0.015625)"/>
      <path id="DejaVuSans-Bold-47" d="M 4781 347 
Q 4331 128 3847 18 
Q 3363 -91 2847 -91 
Q 1681 -91 1000 561 
Q 319 1213 319 2328 
Q 319 3456 1012 4103 
Q 1706 4750 2913 4750 
Q 3378 4750 3804 4662 
Q 4231 4575 4609 4403 
L 4609 3438 
Q 4219 3659 3833 3768 
Q 3447 3878 3059 3878 
Q 2341 3878 1952 3476 
Q 1563 3075 1563 2328 
Q 1563 1588 1938 1184 
Q 2313 781 3003 781 
Q 3191 781 3352 804 
Q 3513 828 3641 878 
L 3641 1784 
L 2906 1784 
L 2906 2591 
L 4781 2591 
L 4781 347 
z
" transform="scale(0.015625)"/>
      <path id="DejaVuSans-Bold-4f" d="M 2719 3878 
Q 2169 3878 1866 3472 
Q 1563 3066 1563 2328 
Q 1563 1594 1866 1187 
Q 2169 781 2719 781 
Q 3272 781 3575 1187 
Q 3878 1594 3878 2328 
Q 3878 3066 3575 3472 
Q 3272 3878 2719 3878 
z
M 2719 4750 
Q 3844 4750 4481 4106 
Q 5119 3463 5119 2328 
Q 5119 1197 4481 553 
Q 3844 -91 2719 -91 
Q 1597 -91 958 553 
Q 319 1197 319 2328 
Q 319 3463 958 4106 
Q 1597 4750 2719 4750 
z
" transform="scale(0.015625)"/>
      <path id="DejaVuSans-Bold-4c" d="M 588 4666 
L 1791 4666 
L 1791 909 
L 3903 909 
L 3903 0 
L 588 0 
L 588 4666 
z
" transform="scale(0.015625)"/>
     </defs>
     <use xlink:href="#DejaVuSans-Bold-41"/>
     <use xlink:href="#DejaVuSans-Bold-4e" transform="translate(77.392578 0)"/>
     <use xlink:href="#DejaVuSans-Bold-47" transform="translate(161.083984 0)"/>
     <use xlink:href="#DejaVuSans-Bold-4f" transform="translate(243.164062 0)"/>
     <use xlink:href="#DejaVuSans-Bold-4c" transform="translate(328.173828 0)"/>
     <use xlink:href="#DejaVuSans-Bold-41" transform="translate(391.894531 0)"/>
    </g>
   </g>
   <g id="text_2">
    <!-- DRC -->
    <g style="fill: #c0b0a0; opacity: 0.8" transform="translate(190.61285 167.339325) scale(0.14 -0.14)">
     <defs>
      <path id="DejaVuSans-Bold-44" d="M 1791 3756 
L 1791 909 
L 2222 909 
Q 2959 909 3348 1275 
Q 3738 1641 3738 2338 
Q 3738 3031 3350 3393 
Q 2963 3756 2222 3756 
L 1791 3756 
z
M 588 4666 
L 1856 4666 
Q 2919 4666 3439 4514 
Q 3959 4363 4331 4000 
Q 4659 3684 4818 3271 
Q 4978 2859 4978 2338 
Q 4978 1809 4818 1395 
Q 4659 981 4331 666 
Q 3956 303 3431 151 
Q 2906 0 1856 0 
L 588 0 
L 588 4666 
z
" transform="scale(0.015625)"/>
      <path id="DejaVuSans-Bold-52" d="M 2297 2597 
Q 2675 2597 2839 2737 
Q 3003 2878 3003 3200 
Q 3003 3519 2839 3656 
Q 2675 3794 2297 3794 
L 1791 3794 
L 1791 2597 
L 2297 2597 
z
M 1791 1766 
L 1791 0 
L 588 0 
L 588 4666 
L 2425 4666 
Q 3347 4666 3776 4356 
Q 4206 4047 4206 3378 
Q 4206 2916 3982 2619 
Q 3759 2322 3309 2181 
Q 3556 2125 3751 1926 
Q 3947 1728 4147 1325 
L 4800 0 
L 3519 0 
L 2950 1159 
Q 2778 1509 2601 1637 
Q 2425 1766 2131 1766 
L 1791 1766 
z
" transform="scale(0.015625)"/>
      <path id="DejaVuSans-Bold-43" d="M 4288 256 
Q 3956 84 3597 -3 
Q 3238 -91 2847 -91 
Q 1681 -91 1000 561 
Q 319 1213 319 2328 
Q 319 3447 1000 4098 
Q 1681 4750 2847 4750 
Q 3238 4750 3597 4662 
Q 3956 4575 4288 4403 
L 4288 3438 
Q 3953 3666 3628 3772 
Q 3303 3878 2944 3878 
Q 2300 3878 1931 3465 
Q 1563 3053 1563 2328 
Q 1563 1606 1931 1193 
Q 2300 781 2944 781 
Q 3303 781 3628 887 
Q 3953 994 4288 1222 
L 4288 256 
z
" transform="scale(0.015625)"/>
     </defs>
     <use xlink:href="#DejaVuSans-Bold-44"/>
     <use xlink:href="#DejaVuSans-Bold-52" transform="translate(83.007812 0)"/>
     <use xlink:href="#DejaVuSans-Bold-43" transform="translate(160.009766 0)"/>
    </g>
   </g>
   <g id="text_3">
    <!-- ZAMBIA -->
    <g style="fill: #c0b0a0; opacity: 0.8" transform="translate(231.669701 281.185704) scale(0.14 -0.14)">
     <defs>
      <path id="DejaVuSans-Bold-5a" d="M 359 4666 
L 4281 4666 
L 4281 3938 
L 1778 909 
L 4353 909 
L 4353 0 
L 288 0 
L 288 728 
L 2791 3756 
L 359 3756 
L 359 4666 
z
" transform="scale(0.015625)"/>
      <path id="DejaVuSans-Bold-4d" d="M 588 4666 
L 2119 4666 
L 3181 2169 
L 4250 4666 
L 5778 4666 
L 5778 0 
L 4641 0 
L 4641 3413 
L 3566 897 
L 2803 897 
L 1728 3413 
L 1728 0 
L 588 0 
L 588 4666 
z
" transform="scale(0.015625)"/>
      <path id="DejaVuSans-Bold-42" d="M 2456 2859 
Q 2741 2859 2887 2984 
Q 3034 3109 3034 3353 
Q 3034 3594 2887 3720 
Q 2741 3847 2456 3847 
L 1791 3847 
L 1791 2859 
L 2456 2859 
z
M 2497 819 
Q 2859 819 3042 972 
Q 3225 1125 3225 1434 
Q 3225 1738 3044 1889 
Q 2863 2041 2497 2041 
L 1791 2041 
L 1791 819 
L 2497 819 
z
M 3616 2497 
Q 4003 2384 4215 2081 
Q 4428 1778 4428 1338 
Q 4428 663 3972 331 
Q 3516 0 2584 0 
L 588 0 
L 588 4666 
L 2394 4666 
Q 3366 4666 3802 4372 
Q 4238 4078 4238 3431 
Q 4238 3091 4078 2852 
Q 3919 2613 3616 2497 
z
" transform="scale(0.015625)"/>
      <path id="DejaVuSans-Bold-49" d="M 588 4666 
L 1791 4666 
L 1791 0 
L 588 0 
L 588 4666 
z
" transform="scale(0.015625)"/>
     </defs>
     <use xlink:href="#DejaVuSans-Bold-5a"/>
     <use xlink:href="#DejaVuSans-Bold-41" transform="translate(72.509766 0)"/>
     <use xlink:href="#DejaVuSans-Bold-4d" transform="translate(149.902344 0)"/>
     <use xlink:href="#DejaVuSans-Bold-42" transform="translate(249.414062 0)"/>
     <use xlink:href="#DejaVuSans-Bold-49" transform="translate(325.634766 0)"/>
     <use xlink:href="#DejaVuSans-Bold-41" transform="translate(362.841797 0)"/>
    </g>
   </g>
   <g id="text_4">
    <!-- NAMIBIA -->
    <g style="fill: #c0b0a0; opacity: 0.8" transform="translate(82.50455 396.420454) scale(0.14 -0.14)">
     <use xlink:href="#DejaVuSans-Bold-4e"/>
     <use xlink:href="#DejaVuSans-Bold-41" transform="translate(83.691406 0)"/>
     <use xlink:href="#DejaVuSans-Bold-4d" transform="translate(161.083984 0)"/>
     <use xlink:href="#DejaVuSans-Bold-49" transform="translate(260.595703 0)"/>
     <use xlink:href="#DejaVuSans-Bold-42" transform="translate(297.802734 0)"/>
     <use xlink:href="#DejaVuSans-Bold-49" transform="translate(374.023438 0)"/>
     <use xlink:href="#DejaVuSans-Bold-41" transform="translate(411.230469 0)"/>
    </g>
   </g>
   <g id="text_5">
    <!-- Lobito -->
    <g style="fill: #c0b0a0" transform="translate(26.855635 277.52143) scale(0.075 -0.075)">
     <defs>
      <path id="DejaVuSans-4c" d="M 628 4666 
L 1259 4666 
L 1259 531 
L 3531 531 
L 3531 0 
L 628 0 
L 628 4666 
z
" transform="scale(0.015625)"/>
      <path id="DejaVuSans-6f" d="M 1959 3097 
Q 1497 3097 1228 2736 
Q 959 2375 959 1747 
Q 959 1119 1226 758 
Q 1494 397 1959 397 
Q 2419 397 2687 759 
Q 2956 1122 2956 1747 
Q 2956 2369 2687 2733 
Q 2419 3097 1959 3097 
z
M 1959 3584 
Q 2709 3584 3137 3096 
Q 3566 2609 3566 1747 
Q 3566 888 3137 398 
Q 2709 -91 1959 -91 
Q 1206 -91 779 398 
Q 353 888 353 1747 
Q 353 2609 779 3096 
Q 1206 3584 1959 3584 
z
" transform="scale(0.015625)"/>
      <path id="DejaVuSans-62" d="M 3116 1747 
Q 3116 2381 2855 2742 
Q 2594 3103 2138 3103 
Q 1681 3103 1420 2742 
Q 1159 2381 1159 1747 
Q 1159 1113 1420 752 
Q 1681 391 2138 391 
Q 2594 391 2855 752 
Q 3116 1113 3116 1747 
z
M 1159 2969 
Q 1341 3281 1617 3432 
Q 1894 3584 2278 3584 
Q 2916 3584 3314 3078 
Q 3713 2572 3713 1747 
Q 3713 922 3314 415 
Q 2916 -91 2278 -91 
Q 1894 -91 1617 61 
Q 1341 213 1159 525 
L 1159 0 
L 581 0 
L 581 4863 
L 1159 4863 
L 1159 2969 
z
" transform="scale(0.015625)"/>
      <path id="DejaVuSans-69" d="M 603 3500 
L 1178 3500 
L 1178 0 
L 603 0 
L 603 3500 
z
M 603 4863 
L 1178 4863 
L 1178 4134 
L 603 4134 
L 603 4863 
z
" transform="scale(0.015625)"/>
      <path id="DejaVuSans-74" d="M 1172 4494 
L 1172 3500 
L 2356 3500 
L 2356 3053 
L 1172 3053 
L 1172 1153 
Q 1172 725 1289 603 
Q 1406 481 1766 481 
L 2356 481 
L 2356 0 
L 1766 0 
Q 1100 0 847 248 
Q 594 497 594 1153 
L 594 3053 
L 172 3053 
L 172 3500 
L 594 3500 
L 594 4494 
L 1172 4494 
z
" transform="scale(0.015625)"/>
     </defs>
     <use xlink:href="#DejaVuSans-4c"/>
     <use xlink:href="#DejaVuSans-6f" transform="translate(53.962891 0)"/>
     <use xlink:href="#DejaVuSans-62" transform="translate(115.144531 0)"/>
     <use xlink:href="#DejaVuSans-69" transform="translate(178.621094 0)"/>
     <use xlink:href="#DejaVuSans-74" transform="translate(206.404297 0)"/>
     <use xlink:href="#DejaVuSans-6f" transform="translate(245.613281 0)"/>
    </g>
   </g>
   <g id="text_6">
    <!-- Huambo -->
    <g style="fill: #c0b0a0" transform="translate(102.133049 271.491423) scale(0.075 -0.075)">
     <defs>
      <path id="DejaVuSans-48" d="M 628 4666 
L 1259 4666 
L 1259 2753 
L 3553 2753 
L 3553 4666 
L 4184 4666 
L 4184 0 
L 3553 0 
L 3553 2222 
L 1259 2222 
L 1259 0 
L 628 0 
L 628 4666 
z
" transform="scale(0.015625)"/>
      <path id="DejaVuSans-75" d="M 544 1381 
L 544 3500 
L 1119 3500 
L 1119 1403 
Q 1119 906 1312 657 
Q 1506 409 1894 409 
Q 2359 409 2629 706 
Q 2900 1003 2900 1516 
L 2900 3500 
L 3475 3500 
L 3475 0 
L 2900 0 
L 2900 538 
Q 2691 219 2414 64 
Q 2138 -91 1772 -91 
Q 1169 -91 856 284 
Q 544 659 544 1381 
z
M 1991 3584 
L 1991 3584 
z
" transform="scale(0.015625)"/>
      <path id="DejaVuSans-61" d="M 2194 1759 
Q 1497 1759 1228 1600 
Q 959 1441 959 1056 
Q 959 750 1161 570 
Q 1363 391 1709 391 
Q 2188 391 2477 730 
Q 2766 1069 2766 1631 
L 2766 1759 
L 2194 1759 
z
M 3341 1997 
L 3341 0 
L 2766 0 
L 2766 531 
Q 2569 213 2275 61 
Q 1981 -91 1556 -91 
Q 1019 -91 701 211 
Q 384 513 384 1019 
Q 384 1609 779 1909 
Q 1175 2209 1959 2209 
L 2766 2209 
L 2766 2266 
Q 2766 2663 2505 2880 
Q 2244 3097 1772 3097 
Q 1472 3097 1187 3025 
Q 903 2953 641 2809 
L 641 3341 
Q 956 3463 1253 3523 
Q 1550 3584 1831 3584 
Q 2591 3584 2966 3190 
Q 3341 2797 3341 1997 
z
" transform="scale(0.015625)"/>
      <path id="DejaVuSans-6d" d="M 3328 2828 
Q 3544 3216 3844 3400 
Q 4144 3584 4550 3584 
Q 5097 3584 5394 3201 
Q 5691 2819 5691 2113 
L 5691 0 
L 5113 0 
L 5113 2094 
Q 5113 2597 4934 2840 
Q 4756 3084 4391 3084 
Q 3944 3084 3684 2787 
Q 3425 2491 3425 1978 
L 3425 0 
L 2847 0 
L 2847 2094 
Q 2847 2600 2669 2842 
Q 2491 3084 2119 3084 
Q 1678 3084 1418 2786 
Q 1159 2488 1159 1978 
L 1159 0 
L 581 0 
L 581 3500 
L 1159 3500 
L 1159 2956 
Q 1356 3278 1631 3431 
Q 1906 3584 2284 3584 
Q 2666 3584 2933 3390 
Q 3200 3197 3328 2828 
z
" transform="scale(0.015625)"/>
     </defs>
     <use xlink:href="#DejaVuSans-48"/>
     <use xlink:href="#DejaVuSans-75" transform="translate(75.195312 0)"/>
     <use xlink:href="#DejaVuSans-61" transform="translate(138.574219 0)"/>
     <use xlink:href="#DejaVuSans-6d" transform="translate(199.853516 0)"/>
     <use xlink:href="#DejaVuSans-62" transform="translate(297.265625 0)"/>
     <use xlink:href="#DejaVuSans-6f" transform="translate(360.742188 0)"/>
    </g>
   </g>
   <g id="text_7">
    <!-- Kolwezi -->
    <g style="fill: #c0b0a0" transform="translate(235.360334 252.890991) scale(0.075 -0.075)">
     <defs>
      <path id="DejaVuSans-4b" d="M 628 4666 
L 1259 4666 
L 1259 2694 
L 3353 4666 
L 4166 4666 
L 1850 2491 
L 4331 0 
L 3500 0 
L 1259 2247 
L 1259 0 
L 628 0 
L 628 4666 
z
" transform="scale(0.015625)"/>
      <path id="DejaVuSans-6c" d="M 603 4863 
L 1178 4863 
L 1178 0 
L 603 0 
L 603 4863 
z
" transform="scale(0.015625)"/>
      <path id="DejaVuSans-77" d="M 269 3500 
L 844 3500 
L 1563 769 
L 2278 3500 
L 2956 3500 
L 3675 769 
L 4391 3500 
L 4966 3500 
L 4050 0 
L 3372 0 
L 2619 2869 
L 1863 0 
L 1184 0 
L 269 3500 
z
" transform="scale(0.015625)"/>
      <path id="DejaVuSans-65" d="M 3597 1894 
L 3597 1613 
L 953 1613 
Q 991 1019 1311 708 
Q 1631 397 2203 397 
Q 2534 397 2845 478 
Q 3156 559 3463 722 
L 3463 178 
Q 3153 47 2828 -22 
Q 2503 -91 2169 -91 
Q 1331 -91 842 396 
Q 353 884 353 1716 
Q 353 2575 817 3079 
Q 1281 3584 2069 3584 
Q 2775 3584 3186 3129 
Q 3597 2675 3597 1894 
z
M 3022 2063 
Q 3016 2534 2758 2815 
Q 2500 3097 2075 3097 
Q 1594 3097 1305 2825 
Q 1016 2553 972 2059 
L 3022 2063 
z
" transform="scale(0.015625)"/>
      <path id="DejaVuSans-7a" d="M 353 3500 
L 3084 3500 
L 3084 2975 
L 922 459 
L 3084 459 
L 3084 0 
L 275 0 
L 275 525 
L 2438 3041 
L 353 3041 
L 353 3500 
z
" transform="scale(0.015625)"/>
     </defs>
     <use xlink:href="#DejaVuSans-4b"/>
     <use xlink:href="#DejaVuSans-6f" transform="translate(60.576172 0)"/>
     <use xlink:href="#DejaVuSans-6c" transform="translate(121.757812 0)"/>
     <use xlink:href="#DejaVuSans-77" transform="translate(149.541016 0)"/>
     <use xlink:href="#DejaVuSans-65" transform="translate(231.328125 0)"/>
     <use xlink:href="#DejaVuSans-7a" transform="translate(292.851562 0)"/>
     <use xlink:href="#DejaVuSans-69" transform="translate(345.341797 0)"/>
    </g>
   </g>
   <g id="text_8">
    <!-- Solwezi -->
    <g style="fill: #c0b0a0" transform="translate(202.069835 273.022363) scale(0.075 -0.075)">
     <defs>
      <path id="DejaVuSans-53" d="M 3425 4513 
L 3425 3897 
Q 3066 4069 2747 4153 
Q 2428 4238 2131 4238 
Q 1616 4238 1336 4038 
Q 1056 3838 1056 3469 
Q 1056 3159 1242 3001 
Q 1428 2844 1947 2747 
L 2328 2669 
Q 3034 2534 3370 2195 
Q 3706 1856 3706 1288 
Q 3706 609 3251 259 
Q 2797 -91 1919 -91 
Q 1588 -91 1214 -16 
Q 841 59 441 206 
L 441 856 
Q 825 641 1194 531 
Q 1563 422 1919 422 
Q 2459 422 2753 634 
Q 3047 847 3047 1241 
Q 3047 1584 2836 1778 
Q 2625 1972 2144 2069 
L 1759 2144 
Q 1053 2284 737 2584 
Q 422 2884 422 3419 
Q 422 4038 858 4394 
Q 1294 4750 2059 4750 
Q 2388 4750 2728 4690 
Q 3069 4631 3425 4513 
z
" transform="scale(0.015625)"/>
     </defs>
     <use xlink:href="#DejaVuSans-53"/>
     <use xlink:href="#DejaVuSans-6f" transform="translate(63.476562 0)"/>
     <use xlink:href="#DejaVuSans-6c" transform="translate(124.658203 0)"/>
     <use xlink:href="#DejaVuSans-77" transform="translate(152.441406 0)"/>
     <use xlink:href="#DejaVuSans-65" transform="translate(234.228516 0)"/>
     <use xlink:href="#DejaVuSans-7a" transform="translate(295.751953 0)"/>
     <use xlink:href="#DejaVuSans-69" transform="translate(348.242188 0)"/>
    </g>
   </g>
   <g id="text_9">
    <!-- Kapiri Mposhi -->
    <g style="fill: #c0b0a0" transform="translate(279.927026 309.896737) scale(0.075 -0.075)">
     <defs>
      <path id="DejaVuSans-70" d="M 1159 525 
L 1159 -1331 
L 581 -1331 
L 581 3500 
L 1159 3500 
L 1159 2969 
Q 1341 3281 1617 3432 
Q 1894 3584 2278 3584 
Q 2916 3584 3314 3078 
Q 3713 2572 3713 1747 
Q 3713 922 3314 415 
Q 2916 -91 2278 -91 
Q 1894 -91 1617 61 
Q 1341 213 1159 525 
z
M 3116 1747 
Q 3116 2381 2855 2742 
Q 2594 3103 2138 3103 
Q 1681 3103 1420 2742 
Q 1159 2381 1159 1747 
Q 1159 1113 1420 752 
Q 1681 391 2138 391 
Q 2594 391 2855 752 
Q 3116 1113 3116 1747 
z
" transform="scale(0.015625)"/>
      <path id="DejaVuSans-72" d="M 2631 2963 
Q 2534 3019 2420 3045 
Q 2306 3072 2169 3072 
Q 1681 3072 1420 2755 
Q 1159 2438 1159 1844 
L 1159 0 
L 581 0 
L 581 3500 
L 1159 3500 
L 1159 2956 
Q 1341 3275 1631 3429 
Q 1922 3584 2338 3584 
Q 2397 3584 2469 3576 
Q 2541 3569 2628 3553 
L 2631 2963 
z
" transform="scale(0.015625)"/>
      <path id="DejaVuSans-20" transform="scale(0.015625)"/>
      <path id="DejaVuSans-4d" d="M 628 4666 
L 1569 4666 
L 2759 1491 
L 3956 4666 
L 4897 4666 
L 4897 0 
L 4281 0 
L 4281 4097 
L 3078 897 
L 2444 897 
L 1241 4097 
L 1241 0 
L 628 0 
L 628 4666 
z
" transform="scale(0.015625)"/>
      <path id="DejaVuSans-73" d="M 2834 3397 
L 2834 2853 
Q 2591 2978 2328 3040 
Q 2066 3103 1784 3103 
Q 1356 3103 1142 2972 
Q 928 2841 928 2578 
Q 928 2378 1081 2264 
Q 1234 2150 1697 2047 
L 1894 2003 
Q 2506 1872 2764 1633 
Q 3022 1394 3022 966 
Q 3022 478 2636 193 
Q 2250 -91 1575 -91 
Q 1294 -91 989 -36 
Q 684 19 347 128 
L 347 722 
Q 666 556 975 473 
Q 1284 391 1588 391 
Q 1994 391 2212 530 
Q 2431 669 2431 922 
Q 2431 1156 2273 1281 
Q 2116 1406 1581 1522 
L 1381 1569 
Q 847 1681 609 1914 
Q 372 2147 372 2553 
Q 372 3047 722 3315 
Q 1072 3584 1716 3584 
Q 2034 3584 2315 3537 
Q 2597 3491 2834 3397 
z
" transform="scale(0.015625)"/>
      <path id="DejaVuSans-68" d="M 3513 2113 
L 3513 0 
L 2938 0 
L 2938 2094 
Q 2938 2591 2744 2837 
Q 2550 3084 2163 3084 
Q 1697 3084 1428 2787 
Q 1159 2491 1159 1978 
L 1159 0 
L 581 0 
L 581 4863 
L 1159 4863 
L 1159 2956 
Q 1366 3272 1645 3428 
Q 1925 3584 2291 3584 
Q 2894 3584 3203 3211 
Q 3513 2838 3513 2113 
z
" transform="scale(0.015625)"/>
     </defs>
     <use xlink:href="#DejaVuSans-4b"/>
     <use xlink:href="#DejaVuSans-61" transform="translate(63.826172 0)"/>
     <use xlink:href="#DejaVuSans-70" transform="translate(125.105469 0)"/>
     <use xlink:href="#DejaVuSans-69" transform="translate(188.582031 0)"/>
     <use xlink:href="#DejaVuSans-72" transform="translate(216.365234 0)"/>
     <use xlink:href="#DejaVuSans-69" transform="translate(257.478516 0)"/>
     <use xlink:href="#DejaVuSans-20" transform="translate(285.261719 0)"/>
     <use xlink:href="#DejaVuSans-4d" transform="translate(317.048828 0)"/>
     <use xlink:href="#DejaVuSans-70" transform="translate(403.328125 0)"/>
     <use xlink:href="#DejaVuSans-6f" transform="translate(466.804688 0)"/>
     <use xlink:href="#DejaVuSans-73" transform="translate(527.986328 0)"/>
     <use xlink:href="#DejaVuSans-68" transform="translate(580.085938 0)"/>
     <use xlink:href="#DejaVuSans-69" transform="translate(643.464844 0)"/>
    </g>
   </g>
   <g id="text_10">
    <!-- ATLANTIC -->
    <g style="fill: #a52a1a; opacity: 0.6" transform="translate(7.2 313.925328) scale(0.08 -0.08)">
     <defs>
      <path id="DejaVuSans-Oblique-41" d="M 2356 4666 
L 3072 4666 
L 3938 0 
L 3278 0 
L 3084 1197 
L 984 1197 
L 325 0 
L -341 0 
L 2356 4666 
z
M 2584 4044 
L 1275 1722 
L 2988 1722 
L 2584 4044 
z
" transform="scale(0.015625)"/>
      <path id="DejaVuSans-Oblique-54" d="M 378 4666 
L 4325 4666 
L 4225 4134 
L 2559 4134 
L 1759 0 
L 1125 0 
L 1925 4134 
L 275 4134 
L 378 4666 
z
" transform="scale(0.015625)"/>
      <path id="DejaVuSans-Oblique-4c" d="M 1075 4666 
L 1709 4666 
L 909 525 
L 3181 525 
L 3078 0 
L 172 0 
L 1075 4666 
z
" transform="scale(0.015625)"/>
      <path id="DejaVuSans-Oblique-4e" d="M 1081 4666 
L 1931 4666 
L 3219 666 
L 4000 4666 
L 4616 4666 
L 3706 0 
L 2853 0 
L 1569 4025 
L 788 0 
L 172 0 
L 1081 4666 
z
" transform="scale(0.015625)"/>
      <path id="DejaVuSans-Oblique-49" d="M 1081 4666 
L 1716 4666 
L 806 0 
L 172 0 
L 1081 4666 
z
" transform="scale(0.015625)"/>
      <path id="DejaVuSans-Oblique-43" d="M 4447 4306 
L 4319 3641 
Q 4019 3944 3683 4091 
Q 3347 4238 2956 4238 
Q 2422 4238 2017 3981 
Q 1613 3725 1319 3200 
Q 1131 2863 1032 2486 
Q 934 2109 934 1728 
Q 934 1091 1264 756 
Q 1594 422 2222 422 
Q 2656 422 3056 561 
Q 3456 700 3834 978 
L 3688 231 
Q 3316 72 2936 -9 
Q 2556 -91 2175 -91 
Q 1278 -91 773 396 
Q 269 884 269 1753 
Q 269 2309 461 2846 
Q 653 3384 1013 3828 
Q 1394 4300 1883 4525 
Q 2372 4750 3022 4750 
Q 3422 4750 3780 4639 
Q 4138 4528 4447 4306 
z
" transform="scale(0.015625)"/>
     </defs>
     <use xlink:href="#DejaVuSans-Oblique-41"/>
     <use xlink:href="#DejaVuSans-Oblique-54" transform="translate(61.158203 0)"/>
     <use xlink:href="#DejaVuSans-Oblique-4c" transform="translate(122.242188 0)"/>
     <use xlink:href="#DejaVuSans-Oblique-41" transform="translate(177.955078 0)"/>
     <use xlink:href="#DejaVuSans-Oblique-4e" transform="translate(246.363281 0)"/>
     <use xlink:href="#DejaVuSans-Oblique-54" transform="translate(321.167969 0)"/>
     <use xlink:href="#DejaVuSans-Oblique-49" transform="translate(382.251953 0)"/>
     <use xlink:href="#DejaVuSans-Oblique-43" transform="translate(411.744141 0)"/>
    </g>
    <!-- OCEAN -->
    <g style="fill: #a52a1a; opacity: 0.6" transform="translate(12.265 322.883578) scale(0.08 -0.08)">
     <defs>
      <path id="DejaVuSans-Oblique-4f" d="M 2919 4238 
Q 2400 4238 2003 3986 
Q 1606 3734 1313 3219 
Q 1125 2891 1026 2522 
Q 928 2153 928 1778 
Q 928 1128 1239 775 
Q 1550 422 2119 422 
Q 2631 422 3032 676 
Q 3434 931 3719 1434 
Q 3909 1772 4009 2142 
Q 4109 2513 4109 2881 
Q 4109 3528 3796 3883 
Q 3484 4238 2919 4238 
z
M 2100 -91 
Q 1241 -91 748 418 
Q 256 928 256 1813 
Q 256 2319 448 2847 
Q 641 3375 978 3788 
Q 1375 4272 1862 4511 
Q 2350 4750 2938 4750 
Q 3794 4750 4287 4245 
Q 4781 3741 4781 2869 
Q 4781 2331 4593 1812 
Q 4406 1294 4056 872 
Q 3656 384 3173 146 
Q 2691 -91 2100 -91 
z
" transform="scale(0.015625)"/>
      <path id="DejaVuSans-Oblique-45" d="M 1081 4666 
L 4031 4666 
L 3928 4134 
L 1606 4134 
L 1338 2753 
L 3566 2753 
L 3463 2222 
L 1234 2222 
L 909 531 
L 3284 531 
L 3181 0 
L 172 0 
L 1081 4666 
z
" transform="scale(0.015625)"/>
     </defs>
     <use xlink:href="#DejaVuSans-Oblique-4f"/>
     <use xlink:href="#DejaVuSans-Oblique-43" transform="translate(78.710938 0)"/>
     <use xlink:href="#DejaVuSans-Oblique-45" transform="translate(148.535156 0)"/>
     <use xlink:href="#DejaVuSans-Oblique-41" transform="translate(211.71875 0)"/>
     <use xlink:href="#DejaVuSans-Oblique-4e" transform="translate(280.126953 0)"/>
    </g>
   </g>
   <g id="text_11">
    <!-- LOBITO CORRIDOR -->
    <g style="fill: #a52a1a; opacity: 0.9" transform="translate(76.794215 235.378161) scale(0.09 -0.09)">
     <defs>
      <path id="DejaVuSans-Bold-54" d="M 31 4666 
L 4331 4666 
L 4331 3756 
L 2784 3756 
L 2784 0 
L 1581 0 
L 1581 3756 
L 31 3756 
L 31 4666 
z
" transform="scale(0.015625)"/>
      <path id="DejaVuSans-Bold-20" transform="scale(0.015625)"/>
     </defs>
     <use xlink:href="#DejaVuSans-Bold-4c"/>
     <use xlink:href="#DejaVuSans-Bold-4f" transform="translate(60.095703 0)"/>
     <use xlink:href="#DejaVuSans-Bold-42" transform="translate(145.105469 0)"/>
     <use xlink:href="#DejaVuSans-Bold-49" transform="translate(221.326172 0)"/>
     <use xlink:href="#DejaVuSans-Bold-54" transform="translate(258.533203 0)"/>
     <use xlink:href="#DejaVuSans-Bold-4f" transform="translate(326.746094 0)"/>
     <use xlink:href="#DejaVuSans-Bold-20" transform="translate(411.755859 0)"/>
     <use xlink:href="#DejaVuSans-Bold-43" transform="translate(446.570312 0)"/>
     <use xlink:href="#DejaVuSans-Bold-4f" transform="translate(519.958984 0)"/>
     <use xlink:href="#DejaVuSans-Bold-52" transform="translate(604.96875 0)"/>
     <use xlink:href="#DejaVuSans-Bold-52" transform="translate(681.970703 0)"/>
     <use xlink:href="#DejaVuSans-Bold-49" transform="translate(758.972656 0)"/>
     <use xlink:href="#DejaVuSans-Bold-44" transform="translate(796.179688 0)"/>
     <use xlink:href="#DejaVuSans-Bold-4f" transform="translate(879.1875 0)"/>
     <use xlink:href="#DejaVuSans-Bold-52" transform="translate(964.197266 0)"/>
    </g>
   </g>
   <g id="line2d_1">
    <defs>
     <path id="m998c8d9305" d="M 0 2.5 
C 0.663008 2.5 1.29895 2.236584 1.767767 1.767767 
C 2.236584 1.29895 2.5 0.663008 2.5 0 
C 2.5 -0.663008 2.236584 -1.29895 1.767767 -1.767767 
C 1.29895 -2.236584 0.663008 -2.5 0 -2.5 
C -0.663008 -2.5 -1.29895 -2.236584 -1.767767 -1.767767 
C -2.236584 -1.29895 -2.5 -0.663008 -2.5 0 
C -2.5 0.663008 -2.236584 1.29895 -1.767767 1.767767 
C -1.29895 2.236584 -0.663008 2.5 0 2.5 
z
" style="stroke: #c0b0a0"/>
    </defs>
    <g clip-path="url(#p4bb331b8ef)">
     <use xlink:href="#m998c8d9305" x="61.866572" y="265.52143" style="fill: #c0b0a0; stroke: #c0b0a0"/>
    </g>
   </g>
   <g id="line2d_2">
    <g clip-path="url(#p4bb331b8ef)">
     <use xlink:href="#m998c8d9305" x="92.133049" y="271.491423" style="fill: #c0b0a0; stroke: #c0b0a0"/>
    </g>
   </g>
   <g id="line2d_3">
    <g clip-path="url(#p4bb331b8ef)">
     <use xlink:href="#m998c8d9305" x="227.360334" y="242.890991" style="fill: #c0b0a0; stroke: #c0b0a0"/>
    </g>
   </g>
   <g id="line2d_4">
    <g clip-path="url(#p4bb331b8ef)">
     <use xlink:href="#m998c8d9305" x="240.272179" y="263.022363" style="fill: #c0b0a0; stroke: #c0b0a0"/>
    </g>
   </g>
   <g id="line2d_5">
    <g clip-path="url(#p4bb331b8ef)">
     <use xlink:href="#m998c8d9305" x="271.927026" y="301.896737" style="fill: #c0b0a0; stroke: #c0b0a0"/>
    </g>
   </g>
   <g id="line2d_6">
    <defs>
     <path id="m17353f88f3" d="M 0 5 
C 1.326016 5 2.597899 4.473168 3.535534 3.535534 
C 4.473168 2.597899 5 1.326016 5 0 
C 5 -1.326016 4.473168 -2.597899 3.535534 -3.535534 
C 2.597899 -4.473168 1.326016 -5 0 -5 
C -1.326016 -5 -2.597899 -4.473168 -3.535534 -3.535534 
C -4.473168 -2.597899 -5 -1.326016 -5 0 
C -5 1.326016 -4.473168 2.597899 -3.535534 3.535534 
C -2.597899 4.473168 -1.326016 5 0 5 
z
" style="stroke: #a52a1a"/>
    </defs>
    <g clip-path="url(#p4bb331b8ef)">
     <use xlink:href="#m17353f88f3" x="61.866572" y="265.52143" style="fill: #a52a1a; stroke: #a52a1a"/>
    </g>
   </g>
   <g id="line2d_7">
    <g clip-path="url(#p4bb331b8ef)">
     <use xlink:href="#m998c8d9305" x="61.866572" y="265.52143" style="fill: #c0b0a0; stroke: #c0b0a0"/>
    </g>
   </g>
  </g>
 </g>
 <defs>
  <clipPath id="p4bb331b8ef">
   <rect x="7.58262" y="7.2" width="358.832565" height="504"/>
  </clipPath>
 </defs>
</svg>
