<?xml version="1.0" encoding="utf-8" standalone="no"?>
<!DOCTYPE svg PUBLIC "-//W3C//DTD SVG 1.1//EN"
  "http://www.w3.org/Graphics/SVG/1.1/DTD/svg11.dtd">
<svg xmlns:xlink="http://www.w3.org/1999/xlink" width="373.615185pt" height="518.4pt" viewBox="0 0 373.615185 518.4" xmlns="http://www.w3.org/2000/svg" version="1.1">
 <metadata>
  <rdf:RDF xmlns:dc="http://purl.org/dc/elements/1.1/" xmlns:cc="http://creativecommons.org/ns#" xmlns:rdf="http://www.w3.org/1999/02/22-rdf-syntax-ns#">
   <cc:Work>
    <dc:type rdf:resource="http://purl.org/dc/dcmitype/StillImage"/>
    <dc:date>2026-03-07T11:34:19.204830</dc:date>
    <dc:format>image/svg+xml</dc:format>
    <dc:creator>
     <cc:Agent>
      <dc:title>Matplotlib v3.10.0, https://matplotlib.org/</dc:title>
     </cc:Agent>
    </dc:creator>
   </cc:Work>
  </rdf:RDF>
 </metadata>
 <defs>
  <style type="text/css">*{stroke-linejoin: round; stroke-linecap: butt}</style>
 </defs>
 <g id="figure_1">
  <g id="patch_1">
   <path d="M 0 518.4 
L 373.615185 518.4 
L 373.615185 0 
L 0 0 
z
" style="fill: #2d1410"/>
  </g>
  <g id="axes_1">
   <g id="PatchCollection_1">
    <path d="M 281.090238 361.865883 
L 286.831355 362.526664 
L 291.868469 367.556306 
L 297.272285 374.797213 
L 300.697395 377.702656 
L 300.569248 382.21486 
L 297.579392 385.362157 
L 296.774327 390.829077 
L 296.774276 390.829421 
L 300.781654 392.586817 
L 301.584492 400.755103 
L 296.072244 408.589052 
L 300.942025 410.256612 
L 316.16287 410.078761 
L 344.45149 411.152805 
L 346.79657 409.628096 
L 397.139856 381.344629 
L 398.086863 373.290276 
L 418.014423 359.41143 
L 411.604594 342.304207 
L 412.426926 334.436172 
L 421.31569 329.377783 
L 421.732201 325.76802 
L 417.909878 317.383651 
L 418.70597 313.164254 
L 417.796448 306.532008 
L 422.644916 297.828869 
L 428.390826 284.13912 
L 433.485954 281.102785 
L 433.486007 281.102753 
L 422.44027 273.053259 
L 407.259224 267.661907 
L 398.93016 267.88977 
L 393.982701 263.725075 
L 384.317713 263.367189 
L 380.693103 261.612281 
L 364.009281 265.524592 
L 353.563058 264.401767 
L 349.675773 283.283883 
L 344.966944 289.758218 
L 342.174685 293.597394 
L 328.563871 296.187412 
L 320.684721 300.355856 
L 311.861394 302.692625 
L 306.327394 305.01773 
L 300.527593 308.552144 
L 300.527673 308.552123 
L 293.030213 326.045958 
L 284.978155 333.820359 
L 282.200866 341.873133 
L 283.589152 349.092937 
z
" clip-path="url(#p975748e878)" style="fill: #251510; stroke: #3a2018; stroke-width: 0.5"/>
    <path d="M 344.310679 425.866943 
L 348.287403 431.492432 
L 355.119574 440.682612 
L 360.171715 450.802444 
L 354.063996 466.739549 
L 352.440435 473.707225 
L 345.857754 483.346472 
L 354.398958 491.638346 
L 363.809483 500.786003 
L 371.021243 498.456763 
L 371.021243 490.664306 
L 375.764346 486.095157 
L 385.427607 486.095157 
L 403.001903 474.304294 
L 407.389917 474.164138 
L 410.641065 474.546773 
L 413.7145 472.945565 
L 422.973186 471.853195 
L 427.076594 477.638952 
L 439.759914 483.445533 
L 445.35949 478.753813 
L 454.845991 478.751341 
L 442.711173 463.001778 
L 442.877083 412.426079 
L 451.098042 400.972578 
L 441.37445 395.428815 
L 437.946286 389.635978 
L 432.742534 388.618302 
L 430.773131 378.835983 
L 426.314657 373.234186 
L 423.604974 363.996385 
L 418.014423 359.41143 
L 398.086863 373.290276 
L 397.139856 381.344629 
L 346.79657 409.628096 
L 344.45149 411.152805 
z
" clip-path="url(#p975748e878)" style="fill: #251510; stroke: #3a2018; stroke-width: 0.5"/>
    <path d="M 100.671206 27.591787 
L 107.322063 34.457883 
L 112.804895 30.656778 
L 115.14525 24.720511 
L 121.374241 23.708892 
L 130.103581 21.083705 
L 137.562298 22.097476 
L 149.954991 29.196746 
L 149.96934 80.473636 
L 153.717353 78.388696 
L 161.948775 65.196753 
L 160.669543 56.737179 
L 163.767537 51.862753 
L 173.712255 53.27902 
L 180.655118 59.475007 
L 187.229925 63.651344 
L 190.627817 70.301484 
L 197.400643 73.519293 
L 203.252249 71.833261 
L 209.884452 67.944626 
L 221.184453 67.258017 
L 230.063024 70.490893 
L 231.467811 74.822201 
L 233.908611 81.465166 
L 241.462751 82.576512 
L 245.636936 87.791732 
L 250.26025 97.043383 
L 262.725406 107.408532 
L 282.370187 117.633059 
L 288.018752 117.481675 
L 294.736333 115.12984 
L 299.414892 116.7965 
L 306.794689 115.408932 
L 313.444829 95.868182 
L 317.057242 86.004538 
L 314.583438 70.526049 
L 315.768683 65.541134 
L 308.762683 68.083814 
L 304.74921 67.094436 
L 303.43841 63.051547 
L 299.647349 57.839198 
L 299.77721 53.038671 
L 308.063159 45.513229 
L 316.189115 47.012004 
L 319.015908 53.177858 
L 329.546074 53.061629 
L 326.077153 42.954766 
L 324.437039 31.419438 
L 320.844715 25.152422 
L 311.370651 18.1414 
L 308.657216 16.133946 
L 302.773324 9.081311 
L 298.900473 1.947603 
L 291.027063 -7.999985 
L 275.336206 -22.324798 
L 265.537133 -30.653795 
L 255.052885 -36.971033 
L 240.54225 -42.357725 
L 233.464504 -43.080925 
L 231.673005 -46.935122 
L 223.234954 -44.883185 
L 216.362402 -47.525592 
L 201.315106 -44.850182 
L 192.903601 -46.543389 
L 187.155309 -45.816601 
L 172.836236 -51.297281 
L 160.983074 -53.495579 
L 152.405835 -58.743084 
L 146.090749 -59.076703 
L 140.216184 -54.126227 
L 135.523994 -53.872246 
L 129.544679 -47.674106 
L 128.888921 -49.599052 
L 127.043613 -45.867541 
L 127.121098 -37.727236 
L 122.610425 -28.42321 
L 127.090965 -25.894163 
L 126.72793 -15.238442 
L 117.636273 -2.244518 
L 110.659688 9.516092 
L 110.638882 9.5534 
z
M 248.592155 9.5534 
L 259.006809 -1.12528 
L 263.974504 0.254396 
L 266.527228 4.690454 
L 274.265038 6.858619 
L 276.625482 11.388663 
L 280.884327 18.1414 
L 276.068016 22.331368 
L 270.006911 26.608867 
L 263.518199 23.777051 
L 255.995628 18.345159 
z
" clip-path="url(#p975748e878)" style="fill: #251510; stroke: #3a2018; stroke-width: 0.5"/>
    <path d="M 248.592155 9.5534 
L 255.995628 18.345159 
L 263.518199 23.777051 
L 270.006911 26.608867 
L 276.068016 22.331368 
L 280.884327 18.1414 
L 276.625482 11.388663 
L 274.265038 6.858619 
L 266.527228 4.690454 
L 263.974504 0.254396 
L 259.006809 -1.12528 
z
" clip-path="url(#p975748e878)" style="fill: #251510; stroke: #3a2018; stroke-width: 0.5"/>
    <path d="M 224.503424 178.093441 
L 240.021374 176.573143 
L 244.531329 174.973924 
L 249.219215 175.296063 
L 256.908237 184.281537 
L 268.982377 195.699918 
L 273.952225 196.791892 
L 275.640409 201.605334 
L 283.545387 207.136235 
L 294.061203 209.036788 
L 294.959463 203.857442 
L 306.539991 204.133664 
L 312.974175 201.203556 
L 315.966702 197.768356 
L 322.578099 196.759607 
L 329.789293 192.298438 
L 329.820144 174.7264 
L 327.113166 165.104539 
L 326.517674 154.729346 
L 328.748975 150.616863 
L 327.180607 142.443555 
L 325.08347 141.180107 
L 321.42227 131.167231 
L 306.794689 115.408932 
L 299.414892 116.7965 
L 294.736333 115.12984 
L 288.018752 117.481675 
L 282.370187 117.633059 
L 273.518879 123.906532 
L 262.782803 126.037389 
L 258.699018 134.842063 
L 258.66458 139.739447 
L 252.718986 141.232482 
L 237.006605 156.482819 
L 232.641577 164.516939 
L 229.847786 166.993612 
z
" clip-path="url(#p975748e878)" style="fill: #251510; stroke: #3a2018; stroke-width: 0.5"/>
    <path d="M 149.965035 120.995078 
L 163.649874 121.478646 
L 164.059543 170.933905 
L 174.39456 171.393079 
L 195.800706 176.253873 
L 201.106325 170.530692 
L 209.969113 175.971911 
L 214.180605 176.002762 
L 222.00738 179.130889 
L 224.503424 178.093441 
L 229.847786 166.993612 
L 232.641577 164.516939 
L 237.006605 156.482819 
L 252.718986 141.232482 
L 258.66458 139.739447 
L 258.699018 134.842063 
L 262.782803 126.037389 
L 273.518879 123.906532 
L 282.370187 117.633059 
L 262.725406 107.408532 
L 250.26025 97.043383 
L 245.636936 87.791732 
L 241.462751 82.576512 
L 233.908611 81.465166 
L 231.467811 74.822201 
L 230.063024 70.490893 
L 221.184453 67.258017 
L 209.884452 67.944626 
L 203.252249 71.833261 
L 197.400643 73.519293 
L 190.627817 70.301484 
L 187.229925 63.651344 
L 180.655118 59.475007 
L 173.712255 53.27902 
L 163.767537 51.862753 
L 160.669543 56.737179 
L 161.948775 65.196753 
L 153.717353 78.388696 
L 149.96934 80.473636 
z
" clip-path="url(#p975748e878)" style="fill: #251510; stroke: #3a2018; stroke-width: 0.5"/>
    <path d="M -88.886836 511.237895 
L -88.090455 533.617277 
L -88.441293 542.448855 
L -85.823998 551.206176 
L -81.547217 555.46215 
L -74.812417 564.056966 
L -76.275318 567.791347 
L -73.539642 573.380363 
L -76.66203 581.616091 
L -76.121064 586.228643 
L -75.156798 598.623129 
L -71.177045 604.221113 
L -69.224118 612.205729 
L -65.608836 615.208301 
L -50.687813 616.85272 
L -36.771235 611.671939 
L -31.564626 606.42838 
L -24.479705 606.191618 
L -17.899876 609.599913 
L -1.096955 602.423875 
L 5.983661 602.763234 
L 14.173471 608.67977 
L 22.312341 608.258621 
L 26.318639 610.207961 
L 33.790988 609.397948 
L 44.540697 605.346808 
L 55.396589 613.107218 
L 58.655294 612.554774 
L 68.049719 597.355018 
L 70.631859 597.661732 
L 76.127605 592.131907 
L 74.614481 589.624383 
L 73.881237 585.009678 
L 62.185199 574.266427 
L 58.516106 565.405792 
L 56.55744 558.189934 
L 53.612265 555.095887 
L 50.810582 545.377169 
L 43.385586 539.657934 
L 41.234639 532.632563 
L 38.115839 527.040677 
L 36.817236 521.269785 
L 27.279319 516.591584 
L 19.484829 522.296829 
L 14.22154 522.066524 
L 5.95281 513.940569 
L 1.93288 513.81573 
L -4.670625 500.420387 
L -8.242143 490.595127 
L -22.655921 485.598733 
L -27.924949 486.328749 
L -33.263572 483.217482 
L -44.36914 483.520968 
L -51.802029 492.205467 
L -56.372969 502.254933 
L -66.202175 511.402194 
L -76.634766 511.230721 
z
" clip-path="url(#p975748e878)" style="fill: #251510; stroke: #3a2018; stroke-width: 0.5"/>
    <path d="M -8.401419 486.758149 
L -8.242143 490.595127 
L -4.670625 500.420387 
L 1.93288 513.81573 
L 5.95281 513.940569 
L 14.22154 522.066524 
L 19.484829 522.296829 
L 27.279319 516.591584 
L 36.817236 521.269785 
L 38.115839 527.040677 
L 41.234639 532.632563 
L 43.385586 539.657934 
L 50.810582 545.377169 
L 53.612265 555.095887 
L 56.55744 558.189934 
L 58.516106 565.405792 
L 62.185199 574.266427 
L 73.881237 585.009678 
L 74.614481 589.624383 
L 76.127605 592.131907 
L 70.631859 597.661732 
L 71.078837 602.082005 
L 74.997605 602.878386 
L 80.517386 593.988008 
L 81.444704 584.776503 
L 80.936742 575.554268 
L 88.493751 562.934141 
L 80.73944 563.0701 
L 76.822107 562.081439 
L 70.494824 563.476182 
L 67.478621 556.924693 
L 75.673453 548.821696 
L 81.720208 546.464839 
L 83.676005 540.717623 
L 88.052513 531.147061 
L 85.877891 527.386134 
L 78.895567 513.316019 
L 75.563681 510.795581 
L 74.492513 500.032959 
L 75.874342 494.185657 
L 74.755821 490.048422 
L 81.316996 482.798127 
L 82.500805 477.813571 
L 87.626342 470.648653 
L 93.975866 466.181387 
L 94.595752 459.848364 
L 96.060088 455.825564 
L 95.061383 448.328821 
L 84.029713 451.610126 
L 72.804329 455.273478 
L 55.28323 455.818031 
L 53.554868 456.574952 
L 45.33636 454.786682 
L 36.899027 456.646339 
L 30.301261 455.734088 
L 7.708436 456.050847 
L 9.735978 467.012564 
L 4.309826 476.191393 
L -2.024631 478.546098 
L -4.845685 484.767197 
z
" clip-path="url(#p975748e878)" style="fill: #251510; stroke: #3a2018; stroke-width: 0.5"/>
    <path d="M 74.492513 500.032959 
L 75.563681 510.795581 
L 78.895567 513.316019 
L 85.877891 527.386134 
L 97.356539 528.42968 
L 99.91572 532.000839 
L 102.21518 531.729639 
L 105.683384 528.585728 
L 123.162152 533.897445 
L 129.057524 539.317499 
L 136.297416 544.171118 
L 134.922762 549.058458 
L 138.837943 550.33482 
L 152.245124 549.472074 
L 165.312229 555.904106 
L 175.349499 571.052205 
L 182.392807 576.672789 
L 191.181696 579.040049 
L 192.755804 573.09876 
L 200.763379 564.418566 
L 200.804274 558.7535 
L 198.548579 552.975792 
L 199.440382 548.660985 
L 204.255259 544.662937 
L 214.828471 538.59394 
L 222.430681 532.983759 
L 222.558389 528.471293 
L 231.895418 521.241086 
L 237.681735 515.233432 
L 241.187247 506.904794 
L 251.56531 501.410124 
L 253.798047 497.008863 
L 249.214193 495.535917 
L 240.31051 495.855546 
L 229.865723 497.316295 
L 224.705748 496.126746 
L 222.623678 492.750736 
L 218.128072 492.334251 
L 212.650979 495.271175 
L 197.194014 488.341943 
L 190.866731 489.736327 
L 188.959722 488.666235 
L 184.808496 480.281993 
L 174.451239 482.991841 
L 164.29487 484.358603 
L 155.452172 489.480193 
L 144.027334 494.198571 
L 136.59301 489.727717 
L 131.187663 482.67867 
L 129.939282 472.996184 
L 121.009771 473.771041 
L 111.612476 476.103504 
L 103.338006 468.745949 
L 96.060088 455.825564 
L 94.595752 459.848364 
L 93.975866 466.181387 
L 87.626342 470.648653 
L 82.500805 477.813571 
L 81.316996 482.798127 
L 74.755821 490.048422 
L 75.874342 494.185657 
z
" clip-path="url(#p975748e878)" style="fill: #251510; stroke: #3a2018; stroke-width: 0.5"/>
    <path d="M 27.765039 369.10147 
L 38.335382 376.764664 
L 33.100074 385.945287 
L 37.861141 389.436449 
L 47.22902 391.13683 
L 48.333909 397.289769 
L 55.752449 390.622411 
L 68.008824 390.038398 
L 72.268386 396.598855 
L 74.021142 405.8297 
L 72.5073 416.669808 
L 65.938951 424.880424 
L 71.949834 440.960145 
L 68.4845 443.719497 
L 58.154506 442.588062 
L 54.273763 449.761948 
L 55.28323 455.818031 
L 72.804329 455.273478 
L 84.029713 451.610126 
L 95.061383 448.328821 
L 96.060088 455.825564 
L 103.338006 468.745949 
L 111.612476 476.103504 
L 121.009771 473.771041 
L 129.939282 472.996184 
L 129.116355 464.611225 
L 124.957955 457.187304 
L 122.24452 448.525405 
L 120.514006 436.222037 
L 121.240793 428.353649 
L 118.977924 423.535903 
L 118.632108 418.444087 
L 117.036476 414.015205 
L 107.895314 407.323452 
L 101.533593 400.171808 
L 95.504056 386.684271 
L 95.968971 375.261585 
L 92.459872 370.818353 
L 84.371942 364.038353 
L 76.202939 355.336994 
L 71.016418 357.796448 
L 70.126767 361.726696 
L 62.564018 361.863731 
L 57.815865 356.548784 
L 54.168297 357.962899 
L 48.965275 362.726118 
L 44.770284 360.390785 
L 39.166201 354.396403 
z
" clip-path="url(#p975748e878)" style="fill: #251510; stroke: #3a2018; stroke-width: 0.5"/>
    <path d="M -4.108854 408.913344 
L -3.663311 413.525897 
L -0.632041 417.964824 
L 2.74074 428.072405 
L 5.538836 438.366526 
L 10.223134 439.168646 
L 30.421077 439.026589 
L 30.301261 455.734088 
L 36.899027 456.646339 
L 45.33636 454.786682 
L 53.554868 456.574952 
L 55.28323 455.818031 
L 54.273763 449.761948 
L 58.154506 442.588062 
L 68.4845 443.719497 
L 71.949834 440.960145 
L 65.938951 424.880424 
L 72.5073 416.669808 
L 74.021142 405.8297 
L 72.268386 396.598855 
L 68.008824 390.038398 
L 55.752449 390.622411 
L 48.333909 397.289769 
L 47.22902 391.13683 
L 37.861141 389.436449 
L 33.100074 385.945287 
L 38.335382 376.764664 
L 27.765039 369.10147 
L 13.497623 383.114906 
L 4.322023 394.571312 
z
" clip-path="url(#p975748e878)" style="fill: #251510; stroke: #3a2018; stroke-width: 0.5"/>
    <path d="M 2.938759 440.460075 
L 7.708436 456.050847 
L 30.301261 455.734088 
L 30.421077 439.026589 
L 10.223134 439.168646 
L 5.538836 438.366526 
z
" clip-path="url(#p975748e878)" style="fill: #251510; stroke: #3a2018; stroke-width: 0.5"/>
    <path d="M 327.57521 233.957055 
L 331.79029 246.854839 
L 336.158906 251.687652 
L 333.491388 263.191411 
L 336.282309 274.446211 
L 338.647775 278.208573 
L 335.117153 289.993577 
L 328.563871 296.187412 
L 342.174685 293.597394 
L 344.966944 289.758218 
L 349.675773 283.283883 
L 353.563058 264.401767 
L 349.675858 253.850078 
L 353.563058 235.801646 
L 358.382957 236.003969 
L 363.392265 231.527734 
L 369.207998 221.486877 
L 370.388938 203.635029 
L 364.37949 200.711378 
L 360.141452 191.078038 
L 351.08208 199.654559 
L 350.054677 209.441436 
L 352.975458 215.896426 
L 352.16975 221.459614 
L 346.688353 224.973017 
L 342.868595 223.697372 
L 334.876087 230.361144 
z
" clip-path="url(#p975748e878)" style="fill: #251510; stroke: #3a2018; stroke-width: 0.5"/>
    <path d="M 292.745381 218.917652 
L 334.876087 230.361144 
L 342.868595 223.697372 
L 346.688353 224.973017 
L 352.16975 221.459614 
L 352.975458 215.896426 
L 350.054677 209.441436 
L 351.08208 199.654559 
L 360.141452 191.078038 
L 364.37949 200.711378 
L 370.388938 203.635029 
L 369.207998 221.486877 
L 363.392265 231.527734 
L 358.382957 236.003969 
L 353.563058 235.801646 
L 349.675858 253.850078 
L 353.563058 264.401767 
L 364.009281 265.524592 
L 380.693103 261.612281 
L 384.317713 263.367189 
L 393.982701 263.725075 
L 398.93016 267.88977 
L 407.259224 267.661907 
L 422.44027 273.053259 
L 433.486007 281.102753 
L 433.485954 281.102785 
L 433.485987 281.102808 
L 435.732355 274.878123 
L 435.161257 261.046205 
L 436.876704 248.863728 
L 437.415517 227.166293 
L 439.857035 220.366204 
L 435.716571 210.44588 
L 430.329879 200.803931 
L 421.49005 192.194407 
L 408.797459 186.916768 
L 393.147497 180.178381 
L 377.460944 165.27673 
L 372.118735 162.741943 
L 362.426563 152.876863 
L 356.706252 149.666945 
L 355.533204 139.767428 
L 362.117338 129.253047 
L 364.856601 121.110589 
L 365.029044 116.9571 
L 367.482257 117.651285 
L 367.085033 104.034316 
L 364.833643 97.584348 
L 368.105979 95.207402 
L 366.041128 89.431128 
L 360.237592 84.492131 
L 348.784772 79.799941 
L 332.088036 72.285261 
L 325.99895 67.151833 
L 327.189217 61.303096 
L 330.737775 60.368963 
L 329.546074 53.061629 
L 319.015908 53.177858 
L 317.823489 59.315014 
L 315.768683 65.541134 
L 314.583438 70.526049 
L 317.057242 86.004538 
L 313.444829 95.868182 
L 306.794689 115.408932 
L 321.42227 131.167231 
L 325.08347 141.180107 
L 327.180607 142.443555 
L 328.748975 150.616863 
L 326.517674 154.729346 
L 327.113166 165.104539 
L 329.820144 174.7264 
L 329.789293 192.298438 
L 322.578099 196.759607 
L 315.966702 197.768356 
L 312.974175 201.203556 
L 306.539991 204.133664 
L 294.959463 203.857442 
L 294.061203 209.036788 
z
" clip-path="url(#p975748e878)" style="fill: #251510; stroke: #3a2018; stroke-width: 0.5"/>
    <path d="M 299.647349 57.839198 
L 303.43841 63.051547 
L 304.74921 67.094436 
L 308.762683 68.083814 
L 315.768683 65.541134 
L 317.823489 59.315014 
L 319.015908 53.177858 
L 316.189115 47.012004 
L 308.063159 45.513229 
L 299.77721 53.038671 
z
" clip-path="url(#p975748e878)" style="fill: #251510; stroke: #3a2018; stroke-width: 0.5"/>
    <path d="M 276.715882 384.922906 
L 285.146759 383.831648 
L 289.397711 391.736626 
L 296.774327 390.829077 
L 297.579392 385.362157 
L 300.569248 382.21486 
L 300.697395 377.702656 
L 297.272285 374.797213 
L 291.868469 367.556306 
L 286.831355 362.526664 
L 281.090238 361.865883 
L 280.207044 378.61069 
z
" clip-path="url(#p975748e878)" style="fill: #251510; stroke: #3a2018; stroke-width: 0.5"/>
    <path d="M 331.26848 532.42655 
L 335.997547 540.334847 
L 343.365629 540.676108 
L 345.440965 544.916192 
L 345.255479 557.39792 
L 349.362695 571.927356 
L 355.939406 575.815904 
L 357.334441 581.491424 
L 363.288607 592.097186 
L 371.662424 598.975451 
L 377.3074 612.651594 
L 379.518935 624.574642 
L 395.683178 621.672809 
L 400.019059 632.034635 
L 408.444801 625.731988 
L 416.5869 628.997019 
L 419.935788 626.094075 
L 429.455012 625.928026 
L 441.538694 620.361354 
L 445.12902 615.567172 
L 451.2845 611.107171 
L 456.99334 602.967571 
L 461.738929 598.474943 
L 456.857974 592.335153 
L 452.16195 585.826472 
L 453.242519 581.99332 
L 453.46438 577.769897 
L 461.219401 577.5379 
L 464.562458 578.522393 
L 467.643556 576.047881 
L 464.615633 571.128904 
L 469.743718 563.483981 
L 474.865 556.799532 
L 480.165244 551.844438 
L 525.559266 535.368646 
L 537.236572 535.453614 
L 498.003722 493.78334 
L 479.917003 493.171485 
L 467.543845 483.384029 
L 458.643557 483.127735 
L 454.845991 478.751341 
L 445.35949 478.753813 
L 439.759914 483.445533 
L 427.076594 477.638952 
L 422.973186 471.853195 
L 413.7145 472.945565 
L 410.641065 474.546773 
L 407.389917 474.164138 
L 403.001903 474.304294 
L 385.427607 486.095157 
L 375.764346 486.095157 
L 371.021243 490.664306 
L 371.021243 498.456763 
L 363.809483 500.786003 
L 355.604393 515.894528 
L 349.263705 519.113465 
L 346.831002 524.665281 
L 339.794601 531.43206 
z
" clip-path="url(#p975748e878)" style="fill: #251510; stroke: #3a2018; stroke-width: 0.5"/>
    <path d="M 284.414949 405.719928 
L 284.531178 416.186957 
L 287.747552 421.491859 
L 288.528867 432.63617 
L 291.449648 439.091161 
L 296.758137 446.331412 
L 302.091737 450.018799 
L 306.555057 454.948469 
L 300.990435 456.828574 
L 301.830581 473.062549 
L 301.830477 473.062627 
L 307.546504 476.849108 
L 316.375013 473.744295 
L 327.550979 476.993776 
L 337.319276 476.961566 
L 345.857754 483.346472 
L 352.440435 473.707225 
L 354.063996 466.739549 
L 360.171715 450.802444 
L 355.119574 440.682612 
L 348.287403 431.492432 
L 344.310679 425.866943 
L 344.45149 411.152805 
L 316.16287 410.078761 
L 300.942025 410.256612 
L 296.072244 408.589052 
L 287.775533 404.303662 
z
" clip-path="url(#p975748e878)" style="fill: #251510; stroke: #3a2018; stroke-width: 0.5"/>
    <path d="M 276.715882 384.922906 
L 278.000854 392.517941 
L 279.907863 393.588392 
L 280.422282 401.849947 
L 284.414949 405.719928 
L 287.775533 404.303662 
L 296.072244 408.589052 
L 301.584492 400.755103 
L 300.781654 392.586817 
L 296.774276 390.829421 
L 296.774327 390.829077 
L 289.397711 391.736626 
L 285.146759 383.831648 
z
" clip-path="url(#p975748e878)" style="fill: #251510; stroke: #3a2018; stroke-width: 0.5"/>
    <path d="M 205.382145 544.016107 
L 209.645667 545.52897 
L 214.412601 548.150784 
L 217.987802 560.544813 
L 221.80135 566.980175 
L 231.811912 568.886949 
L 234.195379 565.073401 
L 241.345781 556.969612 
L 245.159329 555.777879 
L 250.16461 558.161346 
L 260.175173 557.684653 
L 262.081946 554.824492 
L 275.906057 554.824492 
L 276.38275 557.684653 
L 283.533152 560.306467 
L 284.963232 564.358361 
L 290.20686 567.218522 
L 301.88585 559.114733 
L 309.036252 560.544813 
L 315.948307 570.555376 
L 323.575402 578.182471 
L 322.383668 586.524607 
L 319.046814 590.576501 
L 327.38895 591.291541 
L 328.342337 594.390049 
L 334.777698 593.436662 
L 333.109271 583.187752 
L 334.777698 573.17719 
L 341.9281 567.695215 
L 343.596527 562.928281 
L 343.35818 556.016226 
L 345.280092 555.741667 
L 345.440965 544.916192 
L 343.365629 540.676108 
L 335.997547 540.334847 
L 331.26848 532.42655 
L 339.794601 531.43206 
L 346.831002 524.665281 
L 349.263705 519.113465 
L 355.604393 515.894528 
L 363.809483 500.786003 
L 354.398958 491.638346 
L 345.857754 483.346472 
L 337.319276 476.961566 
L 327.550979 476.993776 
L 316.375013 473.744295 
L 307.546504 476.849108 
L 301.830477 473.062627 
L 289.607927 482.28873 
L 286.310479 488.218539 
L 278.578409 485.281616 
L 272.158574 486.195301 
L 268.44213 483.863914 
L 262.208117 485.547435 
L 253.798047 497.008863 
L 251.56531 501.410124 
L 241.187247 506.904794 
L 237.681735 515.233432 
L 231.895418 521.241086 
L 222.558389 528.471293 
L 222.430681 532.983759 
L 214.828471 538.59394 
z
" clip-path="url(#p975748e878)" style="fill: #251510; stroke: #3a2018; stroke-width: 0.5"/>
   </g>
   <g id="PatchCollection_2">
    <path d="M 35.35003 192.85734 
L 37.272106 205.065645 
L 42.062589 217.776172 
L 42.785071 223.73468 
L 47.290005 236.250058 
L 50.599649 241.939519 
L 58.574938 251.023284 
L 63.028932 257.201335 
L 64.486811 267.486129 
L 63.760024 275.355234 
L 59.608081 280.318624 
L 55.910291 288.741609 
L 52.500202 297.071323 
L 53.245643 299.956948 
L 57.513097 305.461304 
L 53.300887 318.874225 
L 50.458309 328.168206 
L 43.503249 336.952073 
L 44.823376 339.650441 
L 50.553732 341.516556 
L 54.575814 341.256835 
L 59.445218 342.92493 
L 100.415072 342.74126 
L 103.839511 332.395482 
L 107.824285 324.070073 
L 111.014831 319.580206 
L 116.33193 312.320942 
L 125.512552 313.443768 
L 130.093536 315.396695 
L 137.76534 313.435876 
L 139.845975 316.907666 
L 143.329245 324.998466 
L 151.940204 325.540866 
L 152.688515 327.946511 
L 159.772001 327.998885 
L 158.56308 322.996752 
L 175.409048 323.118003 
L 175.663747 314.382206 
L 178.477626 309.025647 
L 176.432147 300.656472 
L 177.450941 292.117977 
L 182.082147 286.965894 
L 181.339576 270.444218 
L 184.776211 271.71771 
L 190.809334 271.376916 
L 199.409531 273.456116 
L 205.732509 272.637494 
L 207.199716 268.326992 
L 205.620586 261.593627 
L 208.060668 255.081957 
L 205.99223 249.881805 
L 207.175322 245.08917 
L 178.265975 245.26423 
L 177.626718 201.088045 
L 186.993163 189.729213 
L 196.053252 181.056552 
L 170.536775 175.39866 
L 136.924476 177.363784 
L 127.304768 184.016076 
L 71.025745 183.416997 
L 68.926456 182.441251 
L 60.649833 188.719029 
L 51.649294 189.133721 
L 43.338233 186.768972 
L 36.656525 184.128 
z
" clip-path="url(#p975748e878)" style="fill: #3d2420; stroke: #8b1a10; stroke-width: 1.5"/>
    <path d="M 39.166201 354.396403 
L 44.770284 360.390785 
L 48.965275 362.726118 
L 54.168297 357.962899 
L 49.115941 355.044988 
L 46.844462 351.475622 
L 46.409681 345.423127 
L 42.878341 343.956638 
z
" clip-path="url(#p975748e878)" style="fill: #3d2420; stroke: #8b1a10; stroke-width: 1.5"/>
    <path d="M 42.878341 343.956638 
L 46.409681 345.423127 
L 46.844462 351.475622 
L 49.115941 355.044988 
L 54.168297 357.962899 
L 57.815865 356.548784 
L 62.564018 361.863731 
L 70.126767 361.726696 
L 71.016418 357.796448 
L 76.202939 355.336994 
L 84.371942 364.038353 
L 92.459872 370.818353 
L 95.968971 375.261585 
L 95.504056 386.684271 
L 101.533593 400.171808 
L 107.895314 407.323452 
L 117.036476 414.015205 
L 118.632108 418.444087 
L 118.977924 423.535903 
L 121.240793 428.353649 
L 120.514006 436.222037 
L 122.24452 448.525405 
L 124.957955 457.187304 
L 129.116355 464.611225 
L 129.939282 472.996184 
L 131.187663 482.67867 
L 136.59301 489.727717 
L 144.027334 494.198571 
L 155.452172 489.480193 
L 164.29487 484.358603 
L 174.451239 482.991841 
L 184.808496 480.281993 
L 188.959722 488.666235 
L 190.866731 489.736327 
L 197.194014 488.341943 
L 212.650979 495.271175 
L 218.128072 492.334251 
L 222.623678 492.750736 
L 224.705748 496.126746 
L 229.865723 497.316295 
L 240.31051 495.855546 
L 249.214193 495.535917 
L 253.798047 497.008863 
L 262.208117 485.547435 
L 268.44213 483.863914 
L 272.158574 486.195301 
L 278.578409 485.281616 
L 286.310479 488.218539 
L 289.607927 482.28873 
L 301.830477 473.062627 
L 301.830581 473.062549 
L 300.990435 456.828574 
L 306.555057 454.948469 
L 302.091737 450.018799 
L 296.758137 446.331412 
L 291.449648 439.091161 
L 288.528867 432.63617 
L 287.747552 421.491859 
L 284.531178 416.186957 
L 284.414949 405.719928 
L 280.422282 401.849947 
L 279.907863 393.588392 
L 278.000854 392.517941 
L 276.715882 384.922906 
L 280.207044 378.61069 
L 281.090238 361.865883 
L 283.589152 349.092937 
L 282.200866 341.873133 
L 284.978155 333.820359 
L 293.030213 326.045958 
L 300.527673 308.552123 
L 300.527593 308.552144 
L 295.058473 309.964803 
L 276.410244 307.621577 
L 272.688777 305.962091 
L 268.731984 297.099304 
L 271.839304 290.976497 
L 269.373393 274.538764 
L 267.654358 260.602814 
L 271.405241 258.132598 
L 281.111762 252.729405 
L 284.922193 255.254148 
L 286.083044 240.282903 
L 275.457457 240.397696 
L 269.755082 248.038649 
L 264.63959 253.954827 
L 254.000371 255.89484 
L 250.885158 263.169887 
L 242.397602 258.786922 
L 231.279837 260.723348 
L 226.640021 267.026954 
L 217.824586 268.307621 
L 211.317938 267.972567 
L 210.521557 272.288091 
L 205.732509 272.637494 
L 199.409531 273.456116 
L 190.809334 271.376916 
L 184.776211 271.71771 
L 181.339576 270.444218 
L 182.082147 286.965894 
L 177.450941 292.117977 
L 176.432147 300.656472 
L 178.477626 309.025647 
L 175.663747 314.382206 
L 175.409048 323.118003 
L 158.56308 322.996752 
L 159.772001 327.998885 
L 152.688515 327.946511 
L 151.940204 325.540866 
L 143.329245 324.998466 
L 139.845975 316.907666 
L 137.76534 313.435876 
L 130.093536 315.396695 
L 125.512552 313.443768 
L 116.33193 312.320942 
L 111.014831 319.580206 
L 107.824285 324.070073 
L 103.839511 332.395482 
L 100.415072 342.74126 
L 59.445218 342.92493 
L 54.575814 341.256835 
L 50.553732 341.516556 
L 44.823376 339.650441 
z
" clip-path="url(#p975748e878)" style="fill: #3d2420; stroke: #8b1a10; stroke-width: 1.5"/>
    <path d="M 177.626718 201.088045 
L 178.265975 245.26423 
L 207.175322 245.08917 
L 205.99223 249.881805 
L 208.060668 255.081957 
L 205.620586 261.593627 
L 207.199716 268.326992 
L 205.732509 272.637494 
L 210.521557 272.288091 
L 211.317938 267.972567 
L 217.824586 268.307621 
L 226.640021 267.026954 
L 231.279837 260.723348 
L 242.397602 258.786922 
L 250.885158 263.169887 
L 254.000371 255.89484 
L 264.63959 253.954827 
L 269.755082 248.038649 
L 275.457457 240.397696 
L 286.083044 240.282903 
L 284.922193 255.254148 
L 281.111762 252.729405 
L 271.405241 258.132598 
L 267.654358 260.602814 
L 269.373393 274.538764 
L 271.839304 290.976497 
L 268.731984 297.099304 
L 272.688777 305.962091 
L 276.410244 307.621577 
L 295.058473 309.964803 
L 300.527593 308.552144 
L 306.327394 305.01773 
L 311.861394 302.692625 
L 320.684721 300.355856 
L 328.563871 296.187412 
L 335.117153 289.993577 
L 338.647775 278.208573 
L 336.282309 274.446211 
L 333.491388 263.191411 
L 336.158906 251.687652 
L 331.79029 246.854839 
L 327.57521 233.957055 
L 334.876087 230.361144 
L 292.745381 218.917652 
L 294.061203 209.036788 
L 283.545387 207.136235 
L 275.640409 201.605334 
L 273.952225 196.791892 
L 268.982377 195.699918 
L 256.908237 184.281537 
L 249.219215 175.296063 
L 244.531329 174.973924 
L 240.021374 176.573143 
L 224.503424 178.093441 
L 222.00738 179.130889 
L 221.903348 180.28313 
L 216.424821 183.412692 
L 207.421411 184.211943 
L 196.053252 181.056552 
L 186.993163 189.729213 
z
" clip-path="url(#p975748e878)" style="fill: #3d2420; stroke: #8b1a10; stroke-width: 1.5"/>
    <path d="M 36.656525 184.128 
L 43.338233 186.768972 
L 51.649294 189.133721 
L 60.649833 188.719029 
L 68.926456 182.441251 
L 71.025745 183.416997 
L 127.304768 184.016076 
L 136.924476 177.363784 
L 170.536775 175.39866 
L 196.053252 181.056552 
L 207.421411 184.211943 
L 216.424821 183.412692 
L 221.903348 180.28313 
L 222.00738 179.130889 
L 214.180605 176.002762 
L 209.969113 175.971911 
L 201.106325 170.530692 
L 195.800706 176.253873 
L 174.39456 171.393079 
L 164.059543 170.933905 
L 163.649874 121.478646 
L 149.965035 120.995078 
L 149.96934 80.473636 
L 149.954991 29.196746 
L 137.562298 22.097476 
L 130.103581 21.083705 
L 121.374241 23.708892 
L 115.14525 24.720511 
L 112.804895 30.656778 
L 107.322063 34.457883 
L 100.671206 27.591787 
L 90.353409 38.08034 
L 84.920082 48.219489 
L 81.855091 61.736442 
L 78.432805 71.794519 
L 73.780792 93.174119 
L 73.469415 109.784043 
L 71.692265 117.356837 
L 66.290507 123.0793 
L 59.124513 134.550056 
L 51.826506 151.205898 
L 48.795954 159.922323 
L 37.499541 173.475867 
z
" clip-path="url(#p975748e878)" style="fill: #3d2420; stroke: #8b1a10; stroke-width: 1.5"/>
   </g>
   <g id="LineCollection_1">
    <path d="M 61.866572 252.87857 
L 59.784017 249.685318 
L 92.133049 246.908577 
L 130.590911 236.912309 
L 158.358321 250.796014 
L 183.765501 276.064357 
L 227.360334 275.509009 
L 240.272179 255.377637 
L 260.403551 250.379503 
L 271.927026 216.503263 
" clip-path="url(#p975748e878)" style="fill: none; stroke-dasharray: 11.1,4.8; stroke-dashoffset: 0; stroke: #8b1a10; stroke-width: 5"/>
    <path d="M 61.866572 252.87857 
L 59.784017 249.685318 
L 92.133049 246.908577 
L 130.590911 236.912309 
L 158.358321 250.796014 
L 183.765501 276.064357 
L 227.360334 275.509009 
L 240.272179 255.377637 
L 260.403551 250.379503 
L 271.927026 216.503263 
" clip-path="url(#p975748e878)" style="fill: none; stroke-dasharray: 11.1,4.8; stroke-dashoffset: 0; stroke: #c0b0a0; stroke-width: 3"/>
   </g>
   <g id="text_1">
    <!-- ANGOLA -->
    <g style="fill: #c0b0a0; opacity: 0.8" transform="translate(83.857519 254.659139) scale(0.14 -0.14)">
     <defs>
      <path id="DejaVuSans-Bold-41" d="M 3419 850 
L 1538 850 
L 1241 0 
L 31 0 
L 1759 4666 
L 3194 4666 
L 4922 0 
L 3713 0 
L 3419 850 
z
M 1838 1716 
L 3116 1716 
L 2478 3572 
L 1838 1716 
z
" transform="scale(0.015625)"/>
      <path id="DejaVuSans-Bold-4e" d="M 588 4666 
L 1931 4666 
L 3628 1466 
L 3628 4666 
L 4769 4666 
L 4769 0 
L 3425 0 
L 1728 3200 
L 1728 0 
L 588 0 
L 588 4666 
z
" transform="scale(0.015625)"/>
      <path id="DejaVuSans-Bold-47" d="M 4781 347 
Q 4331 128 3847 18 
Q 3363 -91 2847 -91 
Q 1681 -91 1000 561 
Q 319 1213 319 2328 
Q 319 3456 1012 4103 
Q 1706 4750 2913 4750 
Q 3378 4750 3804 4662 
Q 4231 4575 4609 4403 
L 4609 3438 
Q 4219 3659 3833 3768 
Q 3447 3878 3059 3878 
Q 2341 3878 1952 3476 
Q 1563 3075 1563 2328 
Q 1563 1588 1938 1184 
Q 2313 781 3003 781 
Q 3191 781 3352 804 
Q 3513 828 3641 878 
L 3641 1784 
L 2906 1784 
L 2906 2591 
L 4781 2591 
L 4781 347 
z
" transform="scale(0.015625)"/>
      <path id="DejaVuSans-Bold-4f" d="M 2719 3878 
Q 2169 3878 1866 3472 
Q 1563 3066 1563 2328 
Q 1563 1594 1866 1187 
Q 2169 781 2719 781 
Q 3272 781 3575 1187 
Q 3878 1594 3878 2328 
Q 3878 3066 3575 3472 
Q 3272 3878 2719 3878 
z
M 2719 4750 
Q 3844 4750 4481 4106 
Q 5119 3463 5119 2328 
Q 5119 1197 4481 553 
Q 3844 -91 2719 -91 
Q 1597 -91 958 553 
Q 319 1197 319 2328 
Q 319 3463 958 4106 
Q 1597 4750 2719 4750 
z
" transform="scale(0.015625)"/>
      <path id="DejaVuSans-Bold-4c" d="M 588 4666 
L 1791 4666 
L 1791 909 
L 3903 909 
L 3903 0 
L 588 0 
L 588 4666 
z
" transform="scale(0.015625)"/>
     </defs>
     <use xlink:href="#DejaVuSans-Bold-41"/>
     <use xlink:href="#DejaVuSans-Bold-4e" transform="translate(77.392578 0)"/>
     <use xlink:href="#DejaVuSans-Bold-47" transform="translate(161.083984 0)"/>
     <use xlink:href="#DejaVuSans-Bold-4f" transform="translate(243.164062 0)"/>
     <use xlink:href="#DejaVuSans-Bold-4c" transform="translate(328.173828 0)"/>
     <use xlink:href="#DejaVuSans-Bold-41" transform="translate(391.894531 0)"/>
    </g>
   </g>
   <g id="text_2">
    <!-- DRC -->
    <g style="fill: #c0b0a0; opacity: 0.8" transform="translate(190.61285 351.845073) scale(0.14 -0.14)">
     <defs>
      <path id="DejaVuSans-Bold-44" d="M 1791 3756 
L 1791 909 
L 2222 909 
Q 2959 909 3348 1275 
Q 3738 1641 3738 2338 
Q 3738 3031 3350 3393 
Q 2963 3756 2222 3756 
L 1791 3756 
z
M 588 4666 
L 1856 4666 
Q 2919 4666 3439 4514 
Q 3959 4363 4331 4000 
Q 4659 3684 4818 3271 
Q 4978 2859 4978 2338 
Q 4978 1809 4818 1395 
Q 4659 981 4331 666 
Q 3956 303 3431 151 
Q 2906 0 1856 0 
L 588 0 
L 588 4666 
z
" transform="scale(0.015625)"/>
      <path id="DejaVuSans-Bold-52" d="M 2297 2597 
Q 2675 2597 2839 2737 
Q 3003 2878 3003 3200 
Q 3003 3519 2839 3656 
Q 2675 3794 2297 3794 
L 1791 3794 
L 1791 2597 
L 2297 2597 
z
M 1791 1766 
L 1791 0 
L 588 0 
L 588 4666 
L 2425 4666 
Q 3347 4666 3776 4356 
Q 4206 4047 4206 3378 
Q 4206 2916 3982 2619 
Q 3759 2322 3309 2181 
Q 3556 2125 3751 1926 
Q 3947 1728 4147 1325 
L 4800 0 
L 3519 0 
L 2950 1159 
Q 2778 1509 2601 1637 
Q 2425 1766 2131 1766 
L 1791 1766 
z
" transform="scale(0.015625)"/>
      <path id="DejaVuSans-Bold-43" d="M 4288 256 
Q 3956 84 3597 -3 
Q 3238 -91 2847 -91 
Q 1681 -91 1000 561 
Q 319 1213 319 2328 
Q 319 3447 1000 4098 
Q 1681 4750 2847 4750 
Q 3238 4750 3597 4662 
Q 3956 4575 4288 4403 
L 4288 3438 
Q 3953 3666 3628 3772 
Q 3303 3878 2944 3878 
Q 2300 3878 1931 3465 
Q 1563 3053 1563 2328 
Q 1563 1606 1931 1193 
Q 2300 781 2944 781 
Q 3303 781 3628 887 
Q 3953 994 4288 1222 
L 4288 256 
z
" transform="scale(0.015625)"/>
     </defs>
     <use xlink:href="#DejaVuSans-Bold-44"/>
     <use xlink:href="#DejaVuSans-Bold-52" transform="translate(83.007812 0)"/>
     <use xlink:href="#DejaVuSans-Bold-43" transform="translate(160.009766 0)"/>
    </g>
   </g>
   <g id="text_3">
    <!-- ZAMBIA -->
    <g style="fill: #c0b0a0; opacity: 0.8" transform="translate(224.727848 226.89173) scale(0.14 -0.14)">
     <defs>
      <path id="DejaVuSans-Bold-5a" d="M 359 4666 
L 4281 4666 
L 4281 3938 
L 1778 909 
L 4353 909 
L 4353 0 
L 288 0 
L 288 728 
L 2791 3756 
L 359 3756 
L 359 4666 
z
" transform="scale(0.015625)"/>
      <path id="DejaVuSans-Bold-4d" d="M 588 4666 
L 2119 4666 
L 3181 2169 
L 4250 4666 
L 5778 4666 
L 5778 0 
L 4641 0 
L 4641 3413 
L 3566 897 
L 2803 897 
L 1728 3413 
L 1728 0 
L 588 0 
L 588 4666 
z
" transform="scale(0.015625)"/>
      <path id="DejaVuSans-Bold-42" d="M 2456 2859 
Q 2741 2859 2887 2984 
Q 3034 3109 3034 3353 
Q 3034 3594 2887 3720 
Q 2741 3847 2456 3847 
L 1791 3847 
L 1791 2859 
L 2456 2859 
z
M 2497 819 
Q 2859 819 3042 972 
Q 3225 1125 3225 1434 
Q 3225 1738 3044 1889 
Q 2863 2041 2497 2041 
L 1791 2041 
L 1791 819 
L 2497 819 
z
M 3616 2497 
Q 4003 2384 4215 2081 
Q 4428 1778 4428 1338 
Q 4428 663 3972 331 
Q 3516 0 2584 0 
L 588 0 
L 588 4666 
L 2394 4666 
Q 3366 4666 3802 4372 
Q 4238 4078 4238 3431 
Q 4238 3091 4078 2852 
Q 3919 2613 3616 2497 
z
" transform="scale(0.015625)"/>
      <path id="DejaVuSans-Bold-49" d="M 588 4666 
L 1791 4666 
L 1791 0 
L 588 0 
L 588 4666 
z
" transform="scale(0.015625)"/>
     </defs>
     <use xlink:href="#DejaVuSans-Bold-5a"/>
     <use xlink:href="#DejaVuSans-Bold-41" transform="translate(72.509766 0)"/>
     <use xlink:href="#DejaVuSans-Bold-4d" transform="translate(149.902344 0)"/>
     <use xlink:href="#DejaVuSans-Bold-42" transform="translate(249.414062 0)"/>
     <use xlink:href="#DejaVuSans-Bold-49" transform="translate(325.634766 0)"/>
     <use xlink:href="#DejaVuSans-Bold-41" transform="translate(362.841797 0)"/>
    </g>
   </g>
   <g id="text_4">
    <!-- NAMIBIA -->
    <g style="fill: #c0b0a0; opacity: 0.8" transform="translate(82.50455 129.705796) scale(0.14 -0.14)">
     <use xlink:href="#DejaVuSans-Bold-4e"/>
     <use xlink:href="#DejaVuSans-Bold-41" transform="translate(83.691406 0)"/>
     <use xlink:href="#DejaVuSans-Bold-4d" transform="translate(161.083984 0)"/>
     <use xlink:href="#DejaVuSans-Bold-49" transform="translate(260.595703 0)"/>
     <use xlink:href="#DejaVuSans-Bold-42" transform="translate(297.802734 0)"/>
     <use xlink:href="#DejaVuSans-Bold-49" transform="translate(374.023438 0)"/>
     <use xlink:href="#DejaVuSans-Bold-41" transform="translate(411.230469 0)"/>
    </g>
   </g>
   <g id="text_5">
    <!-- Lobito -->
    <g style="fill: #c0b0a0" transform="translate(30.855635 247.87857) scale(0.075 -0.075)">
     <defs>
      <path id="DejaVuSans-4c" d="M 628 4666 
L 1259 4666 
L 1259 531 
L 3531 531 
L 3531 0 
L 628 0 
L 628 4666 
z
" transform="scale(0.015625)"/>
      <path id="DejaVuSans-6f" d="M 1959 3097 
Q 1497 3097 1228 2736 
Q 959 2375 959 1747 
Q 959 1119 1226 758 
Q 1494 397 1959 397 
Q 2419 397 2687 759 
Q 2956 1122 2956 1747 
Q 2956 2369 2687 2733 
Q 2419 3097 1959 3097 
z
M 1959 3584 
Q 2709 3584 3137 3096 
Q 3566 2609 3566 1747 
Q 3566 888 3137 398 
Q 2709 -91 1959 -91 
Q 1206 -91 779 398 
Q 353 888 353 1747 
Q 353 2609 779 3096 
Q 1206 3584 1959 3584 
z
" transform="scale(0.015625)"/>
      <path id="DejaVuSans-62" d="M 3116 1747 
Q 3116 2381 2855 2742 
Q 2594 3103 2138 3103 
Q 1681 3103 1420 2742 
Q 1159 2381 1159 1747 
Q 1159 1113 1420 752 
Q 1681 391 2138 391 
Q 2594 391 2855 752 
Q 3116 1113 3116 1747 
z
M 1159 2969 
Q 1341 3281 1617 3432 
Q 1894 3584 2278 3584 
Q 2916 3584 3314 3078 
Q 3713 2572 3713 1747 
Q 3713 922 3314 415 
Q 2916 -91 2278 -91 
Q 1894 -91 1617 61 
Q 1341 213 1159 525 
L 1159 0 
L 581 0 
L 581 4863 
L 1159 4863 
L 1159 2969 
z
" transform="scale(0.015625)"/>
      <path id="DejaVuSans-69" d="M 603 3500 
L 1178 3500 
L 1178 0 
L 603 0 
L 603 3500 
z
M 603 4863 
L 1178 4863 
L 1178 4134 
L 603 4134 
L 603 4863 
z
" transform="scale(0.015625)"/>
      <path id="DejaVuSans-74" d="M 1172 4494 
L 1172 3500 
L 2356 3500 
L 2356 3053 
L 1172 3053 
L 1172 1153 
Q 1172 725 1289 603 
Q 1406 481 1766 481 
L 2356 481 
L 2356 0 
L 1766 0 
Q 1100 0 847 248 
Q 594 497 594 1153 
L 594 3053 
L 172 3053 
L 172 3500 
L 594 3500 
L 594 4494 
L 1172 4494 
z
" transform="scale(0.015625)"/>
     </defs>
     <use xlink:href="#DejaVuSans-4c"/>
     <use xlink:href="#DejaVuSans-6f" transform="translate(53.962891 0)"/>
     <use xlink:href="#DejaVuSans-62" transform="translate(115.144531 0)"/>
     <use xlink:href="#DejaVuSans-69" transform="translate(178.621094 0)"/>
     <use xlink:href="#DejaVuSans-74" transform="translate(206.404297 0)"/>
     <use xlink:href="#DejaVuSans-6f" transform="translate(245.613281 0)"/>
    </g>
   </g>
   <g id="text_6">
    <!-- Benguela -->
    <g style="fill: #c0b0a0" transform="translate(16.46136 244.685318) scale(0.075 -0.075)">
     <defs>
      <path id="DejaVuSans-42" d="M 1259 2228 
L 1259 519 
L 2272 519 
Q 2781 519 3026 730 
Q 3272 941 3272 1375 
Q 3272 1813 3026 2020 
Q 2781 2228 2272 2228 
L 1259 2228 
z
M 1259 4147 
L 1259 2741 
L 2194 2741 
Q 2656 2741 2882 2914 
Q 3109 3088 3109 3444 
Q 3109 3797 2882 3972 
Q 2656 4147 2194 4147 
L 1259 4147 
z
M 628 4666 
L 2241 4666 
Q 2963 4666 3353 4366 
Q 3744 4066 3744 3513 
Q 3744 3084 3544 2831 
Q 3344 2578 2956 2516 
Q 3422 2416 3680 2098 
Q 3938 1781 3938 1306 
Q 3938 681 3513 340 
Q 3088 0 2303 0 
L 628 0 
L 628 4666 
z
" transform="scale(0.015625)"/>
      <path id="DejaVuSans-65" d="M 3597 1894 
L 3597 1613 
L 953 1613 
Q 991 1019 1311 708 
Q 1631 397 2203 397 
Q 2534 397 2845 478 
Q 3156 559 3463 722 
L 3463 178 
Q 3153 47 2828 -22 
Q 2503 -91 2169 -91 
Q 1331 -91 842 396 
Q 353 884 353 1716 
Q 353 2575 817 3079 
Q 1281 3584 2069 3584 
Q 2775 3584 3186 3129 
Q 3597 2675 3597 1894 
z
M 3022 2063 
Q 3016 2534 2758 2815 
Q 2500 3097 2075 3097 
Q 1594 3097 1305 2825 
Q 1016 2553 972 2059 
L 3022 2063 
z
" transform="scale(0.015625)"/>
      <path id="DejaVuSans-6e" d="M 3513 2113 
L 3513 0 
L 2938 0 
L 2938 2094 
Q 2938 2591 2744 2837 
Q 2550 3084 2163 3084 
Q 1697 3084 1428 2787 
Q 1159 2491 1159 1978 
L 1159 0 
L 581 0 
L 581 3500 
L 1159 3500 
L 1159 2956 
Q 1366 3272 1645 3428 
Q 1925 3584 2291 3584 
Q 2894 3584 3203 3211 
Q 3513 2838 3513 2113 
z
" transform="scale(0.015625)"/>
      <path id="DejaVuSans-67" d="M 2906 1791 
Q 2906 2416 2648 2759 
Q 2391 3103 1925 3103 
Q 1463 3103 1205 2759 
Q 947 2416 947 1791 
Q 947 1169 1205 825 
Q 1463 481 1925 481 
Q 2391 481 2648 825 
Q 2906 1169 2906 1791 
z
M 3481 434 
Q 3481 -459 3084 -895 
Q 2688 -1331 1869 -1331 
Q 1566 -1331 1297 -1286 
Q 1028 -1241 775 -1147 
L 775 -588 
Q 1028 -725 1275 -790 
Q 1522 -856 1778 -856 
Q 2344 -856 2625 -561 
Q 2906 -266 2906 331 
L 2906 616 
Q 2728 306 2450 153 
Q 2172 0 1784 0 
Q 1141 0 747 490 
Q 353 981 353 1791 
Q 353 2603 747 3093 
Q 1141 3584 1784 3584 
Q 2172 3584 2450 3431 
Q 2728 3278 2906 2969 
L 2906 3500 
L 3481 3500 
L 3481 434 
z
" transform="scale(0.015625)"/>
      <path id="DejaVuSans-75" d="M 544 1381 
L 544 3500 
L 1119 3500 
L 1119 1403 
Q 1119 906 1312 657 
Q 1506 409 1894 409 
Q 2359 409 2629 706 
Q 2900 1003 2900 1516 
L 2900 3500 
L 3475 3500 
L 3475 0 
L 2900 0 
L 2900 538 
Q 2691 219 2414 64 
Q 2138 -91 1772 -91 
Q 1169 -91 856 284 
Q 544 659 544 1381 
z
M 1991 3584 
L 1991 3584 
z
" transform="scale(0.015625)"/>
      <path id="DejaVuSans-6c" d="M 603 4863 
L 1178 4863 
L 1178 0 
L 603 0 
L 603 4863 
z
" transform="scale(0.015625)"/>
      <path id="DejaVuSans-61" d="M 2194 1759 
Q 1497 1759 1228 1600 
Q 959 1441 959 1056 
Q 959 750 1161 570 
Q 1363 391 1709 391 
Q 2188 391 2477 730 
Q 2766 1069 2766 1631 
L 2766 1759 
L 2194 1759 
z
M 3341 1997 
L 3341 0 
L 2766 0 
L 2766 531 
Q 2569 213 2275 61 
Q 1981 -91 1556 -91 
Q 1019 -91 701 211 
Q 384 513 384 1019 
Q 384 1609 779 1909 
Q 1175 2209 1959 2209 
L 2766 2209 
L 2766 2266 
Q 2766 2663 2505 2880 
Q 2244 3097 1772 3097 
Q 1472 3097 1187 3025 
Q 903 2953 641 2809 
L 641 3341 
Q 956 3463 1253 3523 
Q 1550 3584 1831 3584 
Q 2591 3584 2966 3190 
Q 3341 2797 3341 1997 
z
" transform="scale(0.015625)"/>
     </defs>
     <use xlink:href="#DejaVuSans-42"/>
     <use xlink:href="#DejaVuSans-65" transform="translate(68.603516 0)"/>
     <use xlink:href="#DejaVuSans-6e" transform="translate(130.126953 0)"/>
     <use xlink:href="#DejaVuSans-67" transform="translate(193.505859 0)"/>
     <use xlink:href="#DejaVuSans-75" transform="translate(256.982422 0)"/>
     <use xlink:href="#DejaVuSans-65" transform="translate(320.361328 0)"/>
     <use xlink:href="#DejaVuSans-6c" transform="translate(381.884766 0)"/>
     <use xlink:href="#DejaVuSans-61" transform="translate(409.667969 0)"/>
    </g>
   </g>
   <g id="text_7">
    <!-- Huambo -->
    <g style="fill: #c0b0a0" transform="translate(100.133049 241.908577) scale(0.075 -0.075)">
     <defs>
      <path id="DejaVuSans-48" d="M 628 4666 
L 1259 4666 
L 1259 2753 
L 3553 2753 
L 3553 4666 
L 4184 4666 
L 4184 0 
L 3553 0 
L 3553 2222 
L 1259 2222 
L 1259 0 
L 628 0 
L 628 4666 
z
" transform="scale(0.015625)"/>
      <path id="DejaVuSans-6d" d="M 3328 2828 
Q 3544 3216 3844 3400 
Q 4144 3584 4550 3584 
Q 5097 3584 5394 3201 
Q 5691 2819 5691 2113 
L 5691 0 
L 5113 0 
L 5113 2094 
Q 5113 2597 4934 2840 
Q 4756 3084 4391 3084 
Q 3944 3084 3684 2787 
Q 3425 2491 3425 1978 
L 3425 0 
L 2847 0 
L 2847 2094 
Q 2847 2600 2669 2842 
Q 2491 3084 2119 3084 
Q 1678 3084 1418 2786 
Q 1159 2488 1159 1978 
L 1159 0 
L 581 0 
L 581 3500 
L 1159 3500 
L 1159 2956 
Q 1356 3278 1631 3431 
Q 1906 3584 2284 3584 
Q 2666 3584 2933 3390 
Q 3200 3197 3328 2828 
z
" transform="scale(0.015625)"/>
     </defs>
     <use xlink:href="#DejaVuSans-48"/>
     <use xlink:href="#DejaVuSans-75" transform="translate(75.195312 0)"/>
     <use xlink:href="#DejaVuSans-61" transform="translate(138.574219 0)"/>
     <use xlink:href="#DejaVuSans-6d" transform="translate(199.853516 0)"/>
     <use xlink:href="#DejaVuSans-62" transform="translate(297.265625 0)"/>
     <use xlink:href="#DejaVuSans-6f" transform="translate(360.742188 0)"/>
    </g>
   </g>
   <g id="text_8">
    <!-- Kolwezi -->
    <g style="fill: #c0b0a0" transform="translate(235.360334 270.509009) scale(0.075 -0.075)">
     <defs>
      <path id="DejaVuSans-4b" d="M 628 4666 
L 1259 4666 
L 1259 2694 
L 3353 4666 
L 4166 4666 
L 1850 2491 
L 4331 0 
L 3500 0 
L 1259 2247 
L 1259 0 
L 628 0 
L 628 4666 
z
" transform="scale(0.015625)"/>
      <path id="DejaVuSans-77" d="M 269 3500 
L 844 3500 
L 1563 769 
L 2278 3500 
L 2956 3500 
L 3675 769 
L 4391 3500 
L 4966 3500 
L 4050 0 
L 3372 0 
L 2619 2869 
L 1863 0 
L 1184 0 
L 269 3500 
z
" transform="scale(0.015625)"/>
      <path id="DejaVuSans-7a" d="M 353 3500 
L 3084 3500 
L 3084 2975 
L 922 459 
L 3084 459 
L 3084 0 
L 275 0 
L 275 525 
L 2438 3041 
L 353 3041 
L 353 3500 
z
" transform="scale(0.015625)"/>
     </defs>
     <use xlink:href="#DejaVuSans-4b"/>
     <use xlink:href="#DejaVuSans-6f" transform="translate(60.576172 0)"/>
     <use xlink:href="#DejaVuSans-6c" transform="translate(121.757812 0)"/>
     <use xlink:href="#DejaVuSans-77" transform="translate(149.541016 0)"/>
     <use xlink:href="#DejaVuSans-65" transform="translate(231.328125 0)"/>
     <use xlink:href="#DejaVuSans-7a" transform="translate(292.851562 0)"/>
     <use xlink:href="#DejaVuSans-69" transform="translate(345.341797 0)"/>
    </g>
   </g>
   <g id="text_9">
    <!-- Solwezi -->
    <g style="fill: #c0b0a0" transform="translate(248.272179 250.377637) scale(0.075 -0.075)">
     <defs>
      <path id="DejaVuSans-53" d="M 3425 4513 
L 3425 3897 
Q 3066 4069 2747 4153 
Q 2428 4238 2131 4238 
Q 1616 4238 1336 4038 
Q 1056 3838 1056 3469 
Q 1056 3159 1242 3001 
Q 1428 2844 1947 2747 
L 2328 2669 
Q 3034 2534 3370 2195 
Q 3706 1856 3706 1288 
Q 3706 609 3251 259 
Q 2797 -91 1919 -91 
Q 1588 -91 1214 -16 
Q 841 59 441 206 
L 441 856 
Q 825 641 1194 531 
Q 1563 422 1919 422 
Q 2459 422 2753 634 
Q 3047 847 3047 1241 
Q 3047 1584 2836 1778 
Q 2625 1972 2144 2069 
L 1759 2144 
Q 1053 2284 737 2584 
Q 422 2884 422 3419 
Q 422 4038 858 4394 
Q 1294 4750 2059 4750 
Q 2388 4750 2728 4690 
Q 3069 4631 3425 4513 
z
" transform="scale(0.015625)"/>
     </defs>
     <use xlink:href="#DejaVuSans-53"/>
     <use xlink:href="#DejaVuSans-6f" transform="translate(63.476562 0)"/>
     <use xlink:href="#DejaVuSans-6c" transform="translate(124.658203 0)"/>
     <use xlink:href="#DejaVuSans-77" transform="translate(152.441406 0)"/>
     <use xlink:href="#DejaVuSans-65" transform="translate(234.228516 0)"/>
     <use xlink:href="#DejaVuSans-7a" transform="translate(295.751953 0)"/>
     <use xlink:href="#DejaVuSans-69" transform="translate(348.242188 0)"/>
    </g>
   </g>
   <g id="text_10">
    <!-- Kapiri Mposhi -->
    <g style="fill: #c0b0a0" transform="translate(279.927026 211.503263) scale(0.075 -0.075)">
     <defs>
      <path id="DejaVuSans-70" d="M 1159 525 
L 1159 -1331 
L 581 -1331 
L 581 3500 
L 1159 3500 
L 1159 2969 
Q 1341 3281 1617 3432 
Q 1894 3584 2278 3584 
Q 2916 3584 3314 3078 
Q 3713 2572 3713 1747 
Q 3713 922 3314 415 
Q 2916 -91 2278 -91 
Q 1894 -91 1617 61 
Q 1341 213 1159 525 
z
M 3116 1747 
Q 3116 2381 2855 2742 
Q 2594 3103 2138 3103 
Q 1681 3103 1420 2742 
Q 1159 2381 1159 1747 
Q 1159 1113 1420 752 
Q 1681 391 2138 391 
Q 2594 391 2855 752 
Q 3116 1113 3116 1747 
z
" transform="scale(0.015625)"/>
      <path id="DejaVuSans-72" d="M 2631 2963 
Q 2534 3019 2420 3045 
Q 2306 3072 2169 3072 
Q 1681 3072 1420 2755 
Q 1159 2438 1159 1844 
L 1159 0 
L 581 0 
L 581 3500 
L 1159 3500 
L 1159 2956 
Q 1341 3275 1631 3429 
Q 1922 3584 2338 3584 
Q 2397 3584 2469 3576 
Q 2541 3569 2628 3553 
L 2631 2963 
z
" transform="scale(0.015625)"/>
      <path id="DejaVuSans-20" transform="scale(0.015625)"/>
      <path id="DejaVuSans-4d" d="M 628 4666 
L 1569 4666 
L 2759 1491 
L 3956 4666 
L 4897 4666 
L 4897 0 
L 4281 0 
L 4281 4097 
L 3078 897 
L 2444 897 
L 1241 4097 
L 1241 0 
L 628 0 
L 628 4666 
z
" transform="scale(0.015625)"/>
      <path id="DejaVuSans-73" d="M 2834 3397 
L 2834 2853 
Q 2591 2978 2328 3040 
Q 2066 3103 1784 3103 
Q 1356 3103 1142 2972 
Q 928 2841 928 2578 
Q 928 2378 1081 2264 
Q 1234 2150 1697 2047 
L 1894 2003 
Q 2506 1872 2764 1633 
Q 3022 1394 3022 966 
Q 3022 478 2636 193 
Q 2250 -91 1575 -91 
Q 1294 -91 989 -36 
Q 684 19 347 128 
L 347 722 
Q 666 556 975 473 
Q 1284 391 1588 391 
Q 1994 391 2212 530 
Q 2431 669 2431 922 
Q 2431 1156 2273 1281 
Q 2116 1406 1581 1522 
L 1381 1569 
Q 847 1681 609 1914 
Q 372 2147 372 2553 
Q 372 3047 722 3315 
Q 1072 3584 1716 3584 
Q 2034 3584 2315 3537 
Q 2597 3491 2834 3397 
z
" transform="scale(0.015625)"/>
      <path id="DejaVuSans-68" d="M 3513 2113 
L 3513 0 
L 2938 0 
L 2938 2094 
Q 2938 2591 2744 2837 
Q 2550 3084 2163 3084 
Q 1697 3084 1428 2787 
Q 1159 2491 1159 1978 
L 1159 0 
L 581 0 
L 581 4863 
L 1159 4863 
L 1159 2956 
Q 1366 3272 1645 3428 
Q 1925 3584 2291 3584 
Q 2894 3584 3203 3211 
Q 3513 2838 3513 2113 
z
" transform="scale(0.015625)"/>
     </defs>
     <use xlink:href="#DejaVuSans-4b"/>
     <use xlink:href="#DejaVuSans-61" transform="translate(63.826172 0)"/>
     <use xlink:href="#DejaVuSans-70" transform="translate(125.105469 0)"/>
     <use xlink:href="#DejaVuSans-69" transform="translate(188.582031 0)"/>
     <use xlink:href="#DejaVuSans-72" transform="translate(216.365234 0)"/>
     <use xlink:href="#DejaVuSans-69" transform="translate(257.478516 0)"/>
     <use xlink:href="#DejaVuSans-20" transform="translate(285.261719 0)"/>
     <use xlink:href="#DejaVuSans-4d" transform="translate(317.048828 0)"/>
     <use xlink:href="#DejaVuSans-70" transform="translate(403.328125 0)"/>
     <use xlink:href="#DejaVuSans-6f" transform="translate(466.804688 0)"/>
     <use xlink:href="#DejaVuSans-73" transform="translate(527.986328 0)"/>
     <use xlink:href="#DejaVuSans-68" transform="translate(580.085938 0)"/>
     <use xlink:href="#DejaVuSans-69" transform="translate(643.464844 0)"/>
    </g>
   </g>
   <g id="text_11">
    <!-- ATLANTIC -->
    <g style="fill: #a52a1a; opacity: 0.6" transform="translate(7.2 199.931422) scale(0.08 -0.08)">
     <defs>
      <path id="DejaVuSans-Oblique-41" d="M 2356 4666 
L 3072 4666 
L 3938 0 
L 3278 0 
L 3084 1197 
L 984 1197 
L 325 0 
L -341 0 
L 2356 4666 
z
M 2584 4044 
L 1275 1722 
L 2988 1722 
L 2584 4044 
z
" transform="scale(0.015625)"/>
      <path id="DejaVuSans-Oblique-54" d="M 378 4666 
L 4325 4666 
L 4225 4134 
L 2559 4134 
L 1759 0 
L 1125 0 
L 1925 4134 
L 275 4134 
L 378 4666 
z
" transform="scale(0.015625)"/>
      <path id="DejaVuSans-Oblique-4c" d="M 1075 4666 
L 1709 4666 
L 909 525 
L 3181 525 
L 3078 0 
L 172 0 
L 1075 4666 
z
" transform="scale(0.015625)"/>
      <path id="DejaVuSans-Oblique-4e" d="M 1081 4666 
L 1931 4666 
L 3219 666 
L 4000 4666 
L 4616 4666 
L 3706 0 
L 2853 0 
L 1569 4025 
L 788 0 
L 172 0 
L 1081 4666 
z
" transform="scale(0.015625)"/>
      <path id="DejaVuSans-Oblique-49" d="M 1081 4666 
L 1716 4666 
L 806 0 
L 172 0 
L 1081 4666 
z
" transform="scale(0.015625)"/>
      <path id="DejaVuSans-Oblique-43" d="M 4447 4306 
L 4319 3641 
Q 4019 3944 3683 4091 
Q 3347 4238 2956 4238 
Q 2422 4238 2017 3981 
Q 1613 3725 1319 3200 
Q 1131 2863 1032 2486 
Q 934 2109 934 1728 
Q 934 1091 1264 756 
Q 1594 422 2222 422 
Q 2656 422 3056 561 
Q 3456 700 3834 978 
L 3688 231 
Q 3316 72 2936 -9 
Q 2556 -91 2175 -91 
Q 1278 -91 773 396 
Q 269 884 269 1753 
Q 269 2309 461 2846 
Q 653 3384 1013 3828 
Q 1394 4300 1883 4525 
Q 2372 4750 3022 4750 
Q 3422 4750 3780 4639 
Q 4138 4528 4447 4306 
z
" transform="scale(0.015625)"/>
     </defs>
     <use xlink:href="#DejaVuSans-Oblique-41"/>
     <use xlink:href="#DejaVuSans-Oblique-54" transform="translate(61.158203 0)"/>
     <use xlink:href="#DejaVuSans-Oblique-4c" transform="translate(122.242188 0)"/>
     <use xlink:href="#DejaVuSans-Oblique-41" transform="translate(177.955078 0)"/>
     <use xlink:href="#DejaVuSans-Oblique-4e" transform="translate(246.363281 0)"/>
     <use xlink:href="#DejaVuSans-Oblique-54" transform="translate(321.167969 0)"/>
     <use xlink:href="#DejaVuSans-Oblique-49" transform="translate(382.251953 0)"/>
     <use xlink:href="#DejaVuSans-Oblique-43" transform="translate(411.744141 0)"/>
    </g>
    <!-- OCEAN -->
    <g style="fill: #a52a1a; opacity: 0.6" transform="translate(12.265 208.889672) scale(0.08 -0.08)">
     <defs>
      <path id="DejaVuSans-Oblique-4f" d="M 2919 4238 
Q 2400 4238 2003 3986 
Q 1606 3734 1313 3219 
Q 1125 2891 1026 2522 
Q 928 2153 928 1778 
Q 928 1128 1239 775 
Q 1550 422 2119 422 
Q 2631 422 3032 676 
Q 3434 931 3719 1434 
Q 3909 1772 4009 2142 
Q 4109 2513 4109 2881 
Q 4109 3528 3796 3883 
Q 3484 4238 2919 4238 
z
M 2100 -91 
Q 1241 -91 748 418 
Q 256 928 256 1813 
Q 256 2319 448 2847 
Q 641 3375 978 3788 
Q 1375 4272 1862 4511 
Q 2350 4750 2938 4750 
Q 3794 4750 4287 4245 
Q 4781 3741 4781 2869 
Q 4781 2331 4593 1812 
Q 4406 1294 4056 872 
Q 3656 384 3173 146 
Q 2691 -91 2100 -91 
z
" transform="scale(0.015625)"/>
      <path id="DejaVuSans-Oblique-45" d="M 1081 4666 
L 4031 4666 
L 3928 4134 
L 1606 4134 
L 1338 2753 
L 3566 2753 
L 3463 2222 
L 1234 2222 
L 909 531 
L 3284 531 
L 3181 0 
L 172 0 
L 1081 4666 
z
" transform="scale(0.015625)"/>
     </defs>
     <use xlink:href="#DejaVuSans-Oblique-4f"/>
     <use xlink:href="#DejaVuSans-Oblique-43" transform="translate(78.710938 0)"/>
     <use xlink:href="#DejaVuSans-Oblique-45" transform="translate(148.535156 0)"/>
     <use xlink:href="#DejaVuSans-Oblique-41" transform="translate(211.71875 0)"/>
     <use xlink:href="#DejaVuSans-Oblique-4e" transform="translate(280.126953 0)"/>
    </g>
   </g>
   <g id="text_12">
    <!-- LOBITO CORRIDOR -->
    <g style="fill: #a52a1a; opacity: 0.9" transform="translate(97.581623 267.235149) rotate(-355) scale(0.09 -0.09)">
     <defs>
      <path id="DejaVuSans-Bold-54" d="M 31 4666 
L 4331 4666 
L 4331 3756 
L 2784 3756 
L 2784 0 
L 1581 0 
L 1581 3756 
L 31 3756 
L 31 4666 
z
" transform="scale(0.015625)"/>
      <path id="DejaVuSans-Bold-20" transform="scale(0.015625)"/>
     </defs>
     <use xlink:href="#DejaVuSans-Bold-4c"/>
     <use xlink:href="#DejaVuSans-Bold-4f" transform="translate(60.095703 0)"/>
     <use xlink:href="#DejaVuSans-Bold-42" transform="translate(145.105469 0)"/>
     <use xlink:href="#DejaVuSans-Bold-49" transform="translate(221.326172 0)"/>
     <use xlink:href="#DejaVuSans-Bold-54" transform="translate(258.533203 0)"/>
     <use xlink:href="#DejaVuSans-Bold-4f" transform="translate(326.746094 0)"/>
     <use xlink:href="#DejaVuSans-Bold-20" transform="translate(411.755859 0)"/>
     <use xlink:href="#DejaVuSans-Bold-43" transform="translate(446.570312 0)"/>
     <use xlink:href="#DejaVuSans-Bold-4f" transform="translate(519.958984 0)"/>
     <use xlink:href="#DejaVuSans-Bold-52" transform="translate(604.96875 0)"/>
     <use xlink:href="#DejaVuSans-Bold-52" transform="translate(681.970703 0)"/>
     <use xlink:href="#DejaVuSans-Bold-49" transform="translate(758.972656 0)"/>
     <use xlink:href="#DejaVuSans-Bold-44" transform="translate(796.179688 0)"/>
     <use xlink:href="#DejaVuSans-Bold-4f" transform="translate(879.1875 0)"/>
     <use xlink:href="#DejaVuSans-Bold-52" transform="translate(964.197266 0)"/>
    </g>
   </g>
   <g id="line2d_1">
    <defs>
     <path id="me100464fad" d="M 0 2.5 
C 0.663008 2.5 1.29895 2.236584 1.767767 1.767767 
C 2.236584 1.29895 2.5 0.663008 2.5 0 
C 2.5 -0.663008 2.236584 -1.29895 1.767767 -1.767767 
C 1.29895 -2.236584 0.663008 -2.5 0 -2.5 
C -0.663008 -2.5 -1.29895 -2.236584 -1.767767 -1.767767 
C -2.236584 -1.29895 -2.5 -0.663008 -2.5 0 
C -2.5 0.663008 -2.236584 1.29895 -1.767767 1.767767 
C -1.29895 2.236584 -0.663008 2.5 0 2.5 
z
" style="stroke: #c0b0a0"/>
    </defs>
    <g clip-path="url(#p975748e878)">
     <use xlink:href="#me100464fad" x="61.866572" y="252.87857" style="fill: #c0b0a0; stroke: #c0b0a0"/>
    </g>
   </g>
   <g id="line2d_2">
    <g clip-path="url(#p975748e878)">
     <use xlink:href="#me100464fad" x="59.784017" y="249.685318" style="fill: #c0b0a0; stroke: #c0b0a0"/>
    </g>
   </g>
   <g id="line2d_3">
    <g clip-path="url(#p975748e878)">
     <use xlink:href="#me100464fad" x="92.133049" y="246.908577" style="fill: #c0b0a0; stroke: #c0b0a0"/>
    </g>
   </g>
   <g id="line2d_4">
    <g clip-path="url(#p975748e878)">
     <use xlink:href="#me100464fad" x="227.360334" y="275.509009" style="fill: #c0b0a0; stroke: #c0b0a0"/>
    </g>
   </g>
   <g id="line2d_5">
    <g clip-path="url(#p975748e878)">
     <use xlink:href="#me100464fad" x="240.272179" y="255.377637" style="fill: #c0b0a0; stroke: #c0b0a0"/>
    </g>
   </g>
   <g id="line2d_6">
    <g clip-path="url(#p975748e878)">
     <use xlink:href="#me100464fad" x="271.927026" y="216.503263" style="fill: #c0b0a0; stroke: #c0b0a0"/>
    </g>
   </g>
   <g id="line2d_7">
    <defs>
     <path id="m204e2a6145" d="M 0 5 
C 1.326016 5 2.597899 4.473168 3.535534 3.535534 
C 4.473168 2.597899 5 1.326016 5 0 
C 5 -1.326016 4.473168 -2.597899 3.535534 -3.535534 
C 2.597899 -4.473168 1.326016 -5 0 -5 
C -1.326016 -5 -2.597899 -4.473168 -3.535534 -3.535534 
C -4.473168 -2.597899 -5 -1.326016 -5 0 
C -5 1.326016 -4.473168 2.597899 -3.535534 3.535534 
C -2.597899 4.473168 -1.326016 5 0 5 
z
" style="stroke: #a52a1a"/>
    </defs>
    <g clip-path="url(#p975748e878)">
     <use xlink:href="#m204e2a6145" x="61.866572" y="252.87857" style="fill: #a52a1a; stroke: #a52a1a"/>
    </g>
   </g>
   <g id="line2d_8">
    <g clip-path="url(#p975748e878)">
     <use xlink:href="#me100464fad" x="61.866572" y="252.87857" style="fill: #c0b0a0; stroke: #c0b0a0"/>
    </g>
   </g>
  </g>
 </g>
 <defs>
  <clipPath id="p975748e878">
   <rect x="7.58262" y="7.2" width="358.832565" height="504"/>
  </clipPath>
 </defs>
</svg>
